<svg width="62" height="65" viewBox="0 0 62 65" fill="none" xmlns="http://www.w3.org/2000/svg">
<g clip-path="url(#clip0_201_1276)">
<path d="M18.93 1.20001C18.9386 1.26753 18.9204 1.33572 18.8792 1.38994C18.8381 1.44416 18.7773 1.48009 18.71 1.49002H17.6C17.47 1.49002 17.39 1.36001 17.39 1.20001V0.300018C17.3843 0.267138 17.3853 0.233451 17.3928 0.200943C17.4003 0.168435 17.4143 0.13776 17.4339 0.110733C17.4534 0.083706 17.4782 0.0608769 17.5068 0.0435791C17.5353 0.0262813 17.567 0.0148595 17.6 0.0100098H18.71C18.83 0.0100098 18.93 0.130024 18.92 0.290024L18.93 1.20001Z" fill="#1C4670"/>
<path d="M18.8599 9.97005C18.8599 9.81005 18.7599 9.68005 18.6499 9.68005H17.5299C17.4099 9.68005 17.3199 9.80005 17.3199 9.96005V10.86C17.3199 11.02 17.4099 11.15 17.5299 11.15H18.6899C18.7999 11.15 18.8999 11.02 18.8999 10.86L18.8599 9.97005Z" fill="#1C4670"/>
<path d="M16.6301 1.39005C16.654 1.4125 16.673 1.4396 16.6861 1.4697C16.6991 1.4998 16.7058 1.53225 16.7058 1.56505C16.7058 1.59785 16.6991 1.63031 16.6861 1.66041C16.673 1.6905 16.654 1.71761 16.6301 1.74006L15.6301 2.29006C15.5301 2.35006 15.3901 2.29004 15.3101 2.15004L14.8601 1.36005C14.7901 1.22005 14.8001 1.07005 14.9101 1.01005L15.9101 0.460057C16.0101 0.400057 16.1601 0.460057 16.2401 0.600057L16.6301 1.39005Z" fill="#1C4670"/>
<path d="M20.95 9.01997C20.88 8.87997 20.73 8.80996 20.63 8.86996L19.63 9.41996C19.5836 9.46838 19.5576 9.53288 19.5576 9.59997C19.5576 9.66706 19.5836 9.73155 19.63 9.77996L20.08 10.56C20.16 10.69 20.3 10.76 20.4 10.7L21.4 10.15C21.5 10.1 21.52 9.93997 21.4 9.79997L20.95 9.01997Z" fill="#1C4670"/>
<path d="M14.69 2.71999C14.7208 2.731 14.749 2.74819 14.7729 2.77051C14.7969 2.79283 14.816 2.81981 14.8291 2.84978C14.8422 2.87975 14.849 2.91207 14.8492 2.94478C14.8493 2.97749 14.8428 3.0099 14.83 3.03999L14.27 4.03999C14.21 4.14999 14.05 4.15999 13.91 4.03999L13.14 3.58998C13.0788 3.56345 13.0301 3.5144 13.004 3.45297C12.978 3.39155 12.9765 3.32244 13 3.25998L13.56 2.25998C13.6104 2.21766 13.6742 2.19446 13.74 2.19446C13.8058 2.19446 13.8696 2.21766 13.92 2.25998L14.69 2.71999Z" fill="#1C4670"/>
<path d="M22.29 7.13994C22.2433 7.09413 22.1804 7.06848 22.115 7.06848C22.0496 7.06848 21.9867 7.09413 21.94 7.13994L21.37 8.13994C21.3465 8.2024 21.348 8.27149 21.374 8.33292C21.4001 8.39434 21.4488 8.44341 21.51 8.46994L22.29 8.91994C22.3367 8.96574 22.3996 8.99141 22.465 8.99141C22.5304 8.99141 22.5933 8.96574 22.64 8.91994L23.21 7.91994C23.27 7.81994 23.21 7.67995 23.07 7.59995L22.29 7.13994Z" fill="#1C4670"/>
<path d="M13.74 4.78003C13.9 4.78003 14.03 4.87004 14.03 4.99004V6.11003C14.03 6.22003 13.9 6.32004 13.74 6.32004H12.84C12.68 6.32004 12.55 6.22003 12.56 6.11003V4.99004C12.56 4.87004 12.7 4.78003 12.85 4.78003H13.74Z" fill="#1C4670"/>
<path d="M22.51 4.84998C22.4457 4.84308 22.3811 4.85946 22.3279 4.89616C22.2746 4.93287 22.2364 4.98744 22.22 5.04997V6.16997C22.2342 6.23518 22.2712 6.29319 22.3243 6.33353C22.3775 6.37386 22.4433 6.39388 22.51 6.38997H23.41C23.57 6.38997 23.7 6.29998 23.7 6.17998V5.06998C23.69 5.00265 23.6541 4.94189 23.5999 4.90076C23.5457 4.85962 23.4775 4.8414 23.41 4.84998H22.51Z" fill="#1C4670"/>
<path d="M13.93 7.06994C13.9846 7.0348 14.05 7.02051 14.1143 7.02969C14.1786 7.03888 14.2374 7.0709 14.28 7.11993L14.83 8.11993C14.853 8.18099 14.8513 8.24865 14.8251 8.30844C14.799 8.36823 14.7505 8.41543 14.69 8.43994L13.9 8.88994C13.8532 8.93574 13.7904 8.96141 13.725 8.96141C13.6595 8.96141 13.5967 8.93574 13.55 8.88994L13 7.88994C12.94 7.78994 13 7.64994 13.14 7.56994L13.93 7.06994Z" fill="#1C4670"/>
<path d="M21.56 2.72C21.4993 2.74462 21.4501 2.79127 21.4223 2.8506C21.3945 2.90994 21.3901 2.97759 21.41 3.04001L21.96 4.04001C22.0067 4.08582 22.0696 4.11147 22.135 4.11147C22.2005 4.11147 22.2633 4.08582 22.31 4.04001L23.1 3.59C23.1607 3.56538 23.2099 3.51875 23.2377 3.45941C23.2656 3.40008 23.2699 3.33243 23.25 3.27001L22.69 2.27001C22.69 2.16001 22.48 2.15001 22.34 2.27001L21.56 2.72Z" fill="#1C4670"/>
<path d="M15.23 8.96996C15.2565 8.90874 15.3056 8.86007 15.367 8.83401C15.4284 8.80795 15.4975 8.8065 15.56 8.82996L16.56 9.39995C16.5839 9.4224 16.6029 9.44952 16.616 9.47962C16.629 9.50972 16.6357 9.54216 16.6357 9.57496C16.6357 9.60776 16.629 9.64021 16.616 9.67031C16.6029 9.70041 16.5839 9.72752 16.56 9.74996L16.1 10.53C16.02 10.66 15.88 10.73 15.78 10.67L14.78 10.1C14.7342 10.0532 14.7085 9.9904 14.7085 9.92496C14.7085 9.85953 14.7342 9.79669 14.78 9.74996L15.23 8.96996Z" fill="#1C4670"/>
<path d="M19.69 1.40995C19.6457 1.45946 19.6212 1.52353 19.6212 1.58995C19.6212 1.65636 19.6457 1.72045 19.69 1.76996L20.69 2.32995C20.7524 2.35342 20.8215 2.35197 20.883 2.32591C20.9444 2.29985 20.9934 2.25118 21.02 2.18995L21.47 1.40995C21.5158 1.36322 21.5414 1.30039 21.5414 1.23495C21.5414 1.16951 21.5158 1.10668 21.47 1.05995L20.47 0.499951C20.4101 0.476287 20.3435 0.476593 20.2839 0.500806C20.2243 0.525018 20.1763 0.571278 20.15 0.629956L19.69 1.40995Z" fill="#1C4670"/>
<path d="M18.16 0.870042C17.2285 0.862164 16.3156 1.13069 15.5367 1.64165C14.7578 2.15261 14.1479 2.88306 13.7841 3.74063C13.4204 4.59821 13.3191 5.54439 13.493 6.45953C13.667 7.37468 14.1084 8.21768 14.7615 8.88194C15.4146 9.54621 16.25 10.0019 17.162 10.1914C18.0741 10.3809 19.0219 10.2957 19.8855 9.94653C20.7491 9.59739 21.4898 9 22.0139 8.22989C22.5381 7.45978 22.822 6.55154 22.83 5.62004C22.8353 5.00151 22.7187 4.38801 22.4868 3.81455C22.255 3.24108 21.9124 2.71888 21.4788 2.2778C21.0451 1.83672 20.5289 1.48538 19.9594 1.24384C19.39 1.00229 18.7785 0.875272 18.16 0.870042V0.870042ZM18.1 8.72005C17.4865 8.71606 16.8879 8.5301 16.3801 8.18573C15.8724 7.84136 15.4782 7.35406 15.2475 6.78552C15.0169 6.21699 14.9601 5.5928 15.0844 4.99199C15.2088 4.39118 15.5086 3.84077 15.9459 3.41045C16.3832 2.98013 16.9384 2.68926 17.5411 2.57466C18.1439 2.46007 18.7671 2.52692 19.3318 2.76672C19.8965 3.00653 20.3774 3.40851 20.7135 3.92178C21.0497 4.43506 21.2259 5.03653 21.22 5.65004C21.2121 6.47048 20.8792 7.25432 20.2944 7.82977C19.7096 8.40523 18.9204 8.72538 18.1 8.72005V8.72005Z" fill="#1C4670"/>
<path d="M51.35 29.07C51.35 29.18 51.28 29.28 51.2 29.28H50.39C50.3 29.28 50.24 29.19 50.24 29.07V28.42C50.24 28.31 50.31 28.21 50.4 28.21H51.2C51.2238 28.2136 51.2466 28.2219 51.2671 28.2345C51.2876 28.2471 51.3054 28.2637 51.3193 28.2833C51.3333 28.3029 51.3432 28.325 51.3485 28.3485C51.3538 28.372 51.3543 28.3963 51.35 28.42V29.07Z" fill="#1C4670"/>
<path d="M51.3 35.41C51.3 35.29 51.23 35.2 51.15 35.2H50.34C50.26 35.2 50.19 35.3 50.19 35.41V36.06C50.1862 36.107 50.1991 36.1539 50.2266 36.1924C50.254 36.2308 50.2942 36.2583 50.34 36.27H51.15C51.24 36.27 51.3 36.18 51.3 36.07V35.41Z" fill="#1C4670"/>
<path d="M49.69 29.2C49.723 29.2352 49.7414 29.2817 49.7414 29.33C49.7414 29.3783 49.723 29.4248 49.69 29.46L48.99 29.86C48.91 29.86 48.81 29.86 48.75 29.75L48.43 29.19C48.3969 29.1548 48.3785 29.1083 48.3785 29.06C48.3785 29.0117 48.3969 28.9653 48.43 28.93L49.13 28.53C49.21 28.53 49.31 28.53 49.37 28.64L49.69 29.2Z" fill="#1C4670"/>
<path d="M52.81 34.72C52.76 34.62 52.65 34.57 52.58 34.61L51.88 35.01C51.8 35.01 51.79 35.16 51.88 35.27L52.2 35.83C52.26 35.93 52.36 35.98 52.43 35.94L53.14 35.54C53.21 35.54 53.22 35.38 53.14 35.28L52.81 34.72Z" fill="#1C4670"/>
<path d="M48.32 30.15C48.42 30.21 48.46 30.31 48.42 30.38L48.01 31.08C48.01 31.16 47.85 31.17 47.75 31.08L47.19 30.75C47.1 30.69 47.05 30.59 47.1 30.51L47.5 29.81C47.5352 29.7769 47.5817 29.7585 47.63 29.7585C47.6783 29.7585 47.7248 29.7769 47.76 29.81L48.32 30.15Z" fill="#1C4670"/>
<path d="M53.78 33.36C53.68 33.3 53.57 33.36 53.53 33.36L53.12 34.05C53.07 34.13 53.12 34.23 53.22 34.29L53.78 34.62C53.8152 34.6531 53.8617 34.6715 53.91 34.6715C53.9583 34.6715 54.0047 34.6531 54.04 34.62L54.44 33.93C54.44 33.85 54.44 33.75 54.34 33.69L53.78 33.36Z" fill="#1C4670"/>
<path d="M47.6 31.65C47.72 31.65 47.81 31.72 47.81 31.81V32.61C47.8076 32.6334 47.8004 32.656 47.7889 32.6765C47.7773 32.6969 47.7617 32.7148 47.7429 32.7289C47.7241 32.7429 47.7026 32.753 47.6797 32.7584C47.6568 32.7637 47.6331 32.7643 47.61 32.76H46.95C46.84 32.76 46.75 32.69 46.75 32.61V31.8C46.75 31.71 46.84 31.65 46.95 31.65H47.6Z" fill="#1C4670"/>
<path d="M53.94 31.72C53.83 31.72 53.73 31.79 53.73 31.87V32.68C53.73 32.77 53.82 32.83 53.93 32.84H54.58C54.7 32.84 54.79 32.77 54.79 32.69V31.88C54.79 31.8 54.7 31.73 54.58 31.73L53.94 31.72Z" fill="#1C4670"/>
<path d="M47.74 33.3101C47.84 33.2601 47.95 33.3101 47.99 33.3101L48.39 34.0201C48.39 34.0901 48.39 34.1901 48.29 34.2501L47.72 34.5701C47.6847 34.6031 47.6383 34.6215 47.59 34.6215C47.5417 34.6215 47.4952 34.6031 47.46 34.5701L47.07 33.8701C47.053 33.8248 47.0539 33.7749 47.0725 33.7303C47.0911 33.6857 47.1259 33.6499 47.17 33.6301L47.74 33.3101Z" fill="#1C4670"/>
<path d="M53.25 30.1899C53.15 30.2399 53.1 30.3499 53.14 30.4199L53.55 31.1199C53.55 31.1999 53.7 31.2099 53.8 31.1199L54.37 30.79C54.4133 30.7722 54.448 30.7382 54.4667 30.6952C54.4854 30.6523 54.4866 30.6038 54.47 30.5599L54.07 29.8599C54.07 29.7799 53.92 29.7699 53.82 29.8599L53.25 30.1899Z" fill="#1C4670"/>
<path d="M48.69 34.72C48.75 34.63 48.86 34.58 48.93 34.62L49.63 35.03C49.6631 35.0652 49.6815 35.1117 49.6815 35.16C49.6815 35.2083 49.6631 35.2548 49.63 35.29L49.3 35.85C49.24 35.95 49.14 35.99 49.07 35.95L48.37 35.54C48.3398 35.5054 48.3231 35.461 48.3231 35.415C48.3231 35.3691 48.3398 35.3247 48.37 35.29L48.69 34.72Z" fill="#1C4670"/>
<path d="M51.8901 29.22C51.8591 29.2563 51.842 29.3024 51.842 29.35C51.842 29.3977 51.8591 29.4438 51.8901 29.48L52.5901 29.88C52.6601 29.93 52.7701 29.88 52.8201 29.78L53.1601 29.22C53.1601 29.12 53.1601 29.01 53.1601 28.97L52.4601 28.56C52.4162 28.5435 52.3677 28.5447 52.3248 28.5634C52.2818 28.5821 52.2479 28.6167 52.2301 28.66L51.8901 29.22Z" fill="#1C4670"/>
<path d="M50.79 28.83C50.1152 28.824 49.4538 29.0185 48.8895 29.3887C48.3253 29.7589 47.8836 30.2881 47.6203 30.9095C47.357 31.5309 47.284 32.2164 47.4106 32.8793C47.5372 33.5422 47.8576 34.1526 48.3312 34.6333C48.8049 35.114 49.4106 35.4433 50.0715 35.5796C50.7325 35.7159 51.419 35.6529 52.0442 35.3988C52.6693 35.1447 53.2051 34.7108 53.5835 34.152C53.9619 33.5933 54.1661 32.9348 54.17 32.26C54.1754 31.3573 53.8226 30.4893 53.189 29.8464C52.5554 29.2034 51.6927 28.8379 50.79 28.83V28.83ZM50.79 34.47C50.4963 34.4687 50.2058 34.4094 49.9351 34.2955C49.6644 34.1815 49.4188 34.0153 49.2126 33.8062C49.0063 33.5972 48.8433 33.3494 48.7331 33.0772C48.6228 32.805 48.5674 32.5137 48.57 32.22C48.572 31.7765 48.7056 31.3436 48.9538 30.9762C49.2021 30.6087 49.5538 30.3232 49.9644 30.1558C50.3751 29.9884 50.8262 29.9466 51.2605 30.0358C51.6949 30.125 52.0931 30.3411 52.4045 30.6568C52.716 30.9725 52.9267 31.3735 53.0101 31.809C53.0934 32.2446 53.0456 32.6951 52.8727 33.1034C52.6998 33.5118 52.4096 33.8596 52.0389 34.1029C51.6681 34.3462 51.2335 34.4739 50.79 34.47Z" fill="#1C4670"/>
<path d="M16.93 37.8C16.93 37.9 16.88 37.98 16.81 37.98H16.14C16.07 37.98 16.01 37.9 16.01 37.81V37.27C16.01 37.18 16.07 37.1 16.14 37.1H16.8C16.87 37.1 16.93 37.17 16.93 37.27V37.8Z" fill="#1C4670"/>
<path d="M16.8901 43.04C16.8901 42.95 16.8401 42.87 16.7701 42.87H16.1001C16.0301 42.87 15.9701 42.94 15.9701 43.04V43.58C15.9665 43.618 15.9766 43.656 15.9986 43.6872C16.0207 43.7184 16.0531 43.7406 16.0901 43.75H16.7601C16.8301 43.75 16.8901 43.68 16.8901 43.58V43.04Z" fill="#1C4670"/>
<path d="M15.5601 37.9201C15.575 37.9332 15.5869 37.9494 15.5951 37.9675C15.6032 37.9856 15.6075 38.0052 15.6075 38.025C15.6075 38.0449 15.6032 38.0645 15.5951 38.0826C15.5869 38.1008 15.575 38.1169 15.5601 38.1301L14.9801 38.4601C14.9801 38.4601 14.8401 38.46 14.7901 38.37L14.5301 37.9C14.5026 37.872 14.4872 37.8343 14.4872 37.7951C14.4872 37.7558 14.5026 37.7181 14.5301 37.6901L15.1101 37.3601C15.1487 37.349 15.1899 37.352 15.2265 37.3685C15.2631 37.385 15.2927 37.4139 15.3101 37.45L15.5601 37.9201Z" fill="#1C4670"/>
<path d="M18.14 42.47C18.1334 42.4518 18.1232 42.4351 18.1098 42.421C18.0965 42.407 18.0804 42.3958 18.0626 42.3883C18.0447 42.3808 18.0255 42.377 18.0061 42.3773C17.9867 42.3776 17.9676 42.3819 17.95 42.39L17.37 42.72C17.31 42.72 17.3 42.84 17.37 42.93L17.64 43.39C17.64 43.48 17.77 43.52 17.83 43.48L18.42 43.15C18.4453 43.1209 18.4593 43.0836 18.4593 43.045C18.4593 43.0064 18.4453 42.9691 18.42 42.94L18.14 42.47Z" fill="#1C4670"/>
<path d="M14.43 38.72C14.51 38.77 14.55 38.85 14.51 38.91L14.18 39.49C14.1503 39.5181 14.1109 39.5338 14.07 39.5338C14.0291 39.5338 13.9897 39.5181 13.96 39.49L13.5 39.22C13.42 39.17 13.38 39.08 13.42 39.02L13.75 38.45C13.778 38.4225 13.8157 38.4071 13.855 38.4071C13.8943 38.4071 13.932 38.4225 13.96 38.45L14.43 38.72Z" fill="#1C4670"/>
<path d="M18.94 41.3501C18.9109 41.3247 18.8736 41.3108 18.835 41.3108C18.7964 41.3108 18.7591 41.3247 18.73 41.3501L18.4 41.9301C18.4 41.9901 18.4 42.0801 18.48 42.1301L18.94 42.4001C19.02 42.4501 19.12 42.4001 19.15 42.4001L19.49 41.8201C19.49 41.7601 19.49 41.6701 19.41 41.6201L18.94 41.3501Z" fill="#1C4670"/>
<path d="M13.84 39.94C13.93 39.94 14.01 40.0001 14.01 40.0701V40.72C14.01 40.79 13.93 40.84 13.84 40.84H13.29C13.2 40.84 13.12 40.7801 13.12 40.7101V40.0401C13.12 39.9701 13.2 39.92 13.29 39.92L13.84 39.94Z" fill="#1C4670"/>
<path d="M19.08 39.98C18.98 39.98 18.9 40.04 18.9 40.11V40.77C18.9 40.84 18.97 40.9 19.07 40.9H19.61C19.7 40.9 19.78 40.84 19.78 40.77V40.11C19.78 40.03 19.71 39.98 19.61 39.97L19.08 39.98Z" fill="#1C4670"/>
<path d="M13.95 41.31C13.9791 41.2847 14.0164 41.2708 14.055 41.2708C14.0936 41.2708 14.1309 41.2847 14.16 41.31L14.49 41.89C14.5005 41.9272 14.4971 41.967 14.4806 42.0019C14.4641 42.0368 14.4354 42.0646 14.4 42.08L13.93 42.35C13.902 42.3775 13.8643 42.3929 13.825 42.3929C13.7858 42.3929 13.7481 42.3775 13.72 42.35L13.39 41.77C13.3795 41.7328 13.3829 41.6931 13.3994 41.6582C13.416 41.6232 13.4446 41.5955 13.48 41.58L13.95 41.31Z" fill="#1C4670"/>
<path d="M18.5 38.7199C18.42 38.7699 18.38 38.85 18.42 38.91L18.75 39.49C18.75 39.56 18.88 39.57 18.96 39.49L19.43 39.2299C19.51 39.1799 19.55 39.0899 19.51 39.0299L19.18 38.4499C19.18 38.3899 19.06 38.3799 18.97 38.4499L18.5 38.7199Z" fill="#1C4670"/>
<path d="M14.69 42.45C14.7074 42.4139 14.737 42.385 14.7736 42.3685C14.8102 42.352 14.8514 42.349 14.89 42.3601L15.46 42.7C15.4875 42.7281 15.5029 42.7658 15.5029 42.8051C15.5029 42.8443 15.4875 42.882 15.46 42.9101L15.19 43.3801C15.1726 43.4159 15.1425 43.444 15.1055 43.4587C15.0685 43.4735 15.0274 43.474 14.99 43.4601L14.42 43.12C14.36 43.12 14.35 42.9901 14.42 42.9101L14.69 42.45Z" fill="#1C4670"/>
<path d="M17.38 37.93C17.38 38.01 17.38 38.11 17.38 38.14L17.95 38.48C18.01 38.48 18.1 38.48 18.15 38.4L18.42 37.93C18.4475 37.902 18.4629 37.8643 18.4629 37.825C18.4629 37.7857 18.4475 37.748 18.42 37.72L17.84 37.38C17.78 37.38 17.7 37.38 17.65 37.47L17.38 37.93Z" fill="#1C4670"/>
<path d="M16.47 37.61C15.9146 37.608 15.3712 37.7707 14.9082 38.0774C14.4452 38.3841 14.0835 38.821 13.8687 39.3331C13.6539 39.8453 13.5957 40.4095 13.7014 40.9547C13.8071 41.4999 14.0719 42.0016 14.4625 42.3963C14.8531 42.7911 15.3519 43.0613 15.8959 43.1728C16.4399 43.2843 17.0048 43.2321 17.5192 43.0227C18.0336 42.8134 18.4744 42.4564 18.786 41.9967C19.0976 41.537 19.266 40.9953 19.27 40.44C19.2726 40.0702 19.2022 39.7034 19.0628 39.3608C18.9234 39.0182 18.7177 38.7066 18.4576 38.4436C18.1974 38.1807 17.8879 37.9717 17.5469 37.8287C17.2058 37.6856 16.8398 37.6113 16.47 37.61V37.61ZM16.47 42.27C16.1036 42.268 15.7462 42.1573 15.4428 41.9519C15.1395 41.7465 14.904 41.4557 14.7661 41.1164C14.6282 40.777 14.5942 40.4043 14.6684 40.0456C14.7425 39.6868 14.9215 39.3582 15.1826 39.1013C15.4437 38.8444 15.7752 38.6708 16.1351 38.6025C16.495 38.5342 16.8671 38.5742 17.2042 38.7176C17.5413 38.861 17.8282 39.1012 18.0286 39.4079C18.229 39.7145 18.3339 40.0737 18.33 40.44C18.3287 40.6851 18.2785 40.9274 18.1824 41.1528C18.0862 41.3782 17.946 41.5821 17.7699 41.7526C17.5938 41.923 17.3855 42.0566 17.1571 42.1455C16.9288 42.2343 16.6849 42.2767 16.44 42.27H16.47Z" fill="#1C4670"/>
<path d="M29.5499 3.26001C29.5499 3.37001 29.4799 3.46002 29.3999 3.46002H28.5899C28.4999 3.46002 28.4399 3.36002 28.4399 3.25002V2.60002C28.4399 2.49002 28.5099 2.39001 28.5999 2.39001H29.3999C29.4899 2.39001 29.5599 2.48002 29.5499 2.60002V3.26001Z" fill="#1C4670"/>
<path d="M29.5001 9.60002C29.5001 9.48002 29.4301 9.39001 29.3501 9.39001H28.5401C28.4601 9.39001 28.3901 9.49002 28.3901 9.60002V10.25C28.3862 10.2971 28.3992 10.344 28.4267 10.3824C28.4541 10.4209 28.4943 10.4484 28.5401 10.46H29.3501C29.4401 10.46 29.5001 10.37 29.5001 10.26V9.60002Z" fill="#1C4670"/>
<path d="M27.89 3.39003C27.9231 3.42525 27.9415 3.47174 27.9415 3.52004C27.9415 3.56833 27.9231 3.6148 27.89 3.65003L27.18 4.05004C27.11 4.05004 27.01 4.05003 26.95 3.94003L26.63 3.38004C26.597 3.34482 26.5786 3.29833 26.5786 3.25003C26.5786 3.20174 26.597 3.15525 26.63 3.12003L27.33 2.72003C27.3754 2.70536 27.4245 2.70737 27.4685 2.72571C27.5125 2.74404 27.5485 2.7775 27.57 2.82004L27.89 3.39003Z" fill="#1C4670"/>
<path d="M31.01 8.90994C31.01 8.80994 30.85 8.75994 30.78 8.79994L30.08 9.19994C30 9.19994 29.99 9.34994 30.08 9.44994L30.4 10.0199C30.4 10.1199 30.56 10.1699 30.63 10.1299L31.34 9.72993C31.41 9.72993 31.42 9.56994 31.34 9.46994L31.01 8.90994Z" fill="#1C4670"/>
<path d="M26.5201 4.34003C26.5634 4.35783 26.598 4.39182 26.6167 4.43476C26.6354 4.4777 26.6366 4.52623 26.6201 4.57005L26.2101 5.27004C26.1748 5.30309 26.1283 5.32148 26.08 5.32148C26.0318 5.32148 25.9853 5.30309 25.95 5.27004L25.3901 4.94004C25.346 4.92024 25.3111 4.8844 25.2926 4.83982C25.274 4.79524 25.2731 4.74526 25.29 4.70003L25.7 4.00004C25.7 3.93004 25.8601 3.92004 25.9601 4.00004L26.5201 4.34003Z" fill="#1C4670"/>
<path d="M31.9799 7.55C31.8799 7.49 31.7699 7.5 31.7299 7.55L31.3199 8.24C31.3199 8.32 31.32 8.41999 31.42 8.47999L31.9799 8.81C32.0135 8.84238 32.0583 8.86049 32.1049 8.86049C32.1516 8.86049 32.1964 8.84238 32.2299 8.81L32.6399 8.11999C32.6399 8.03999 32.6399 7.94 32.5399 7.88L31.9799 7.55Z" fill="#1C4670"/>
<path d="M25.8 5.83997C25.92 5.83997 26.01 5.90997 26.01 5.99997V6.79997C26.0076 6.82334 26.0004 6.84596 25.9888 6.86641C25.9773 6.88686 25.9616 6.9047 25.9428 6.91879C25.924 6.93289 25.9025 6.94294 25.8797 6.9483C25.8568 6.95367 25.8331 6.95423 25.81 6.94997H25.15C25.04 6.94997 24.95 6.87997 24.95 6.79997V5.98997C24.95 5.89997 25.05 5.83997 25.16 5.83997H25.8Z" fill="#1C4670"/>
<path d="M32.1401 5.89C32.0301 5.89 31.9301 5.96001 31.9301 6.04001V6.85001C31.9417 6.89578 31.9692 6.93595 32.0076 6.96341C32.0461 6.99086 32.093 7.00382 32.1401 7H32.7901C32.9101 7 33.0001 6.93001 33.0001 6.85001V6.04001C33.0001 5.96001 32.9101 5.89 32.7901 5.88L32.1401 5.89Z" fill="#1C4670"/>
<path d="M25.94 7.50001C26.04 7.45001 26.15 7.50001 26.19 7.50001L26.59 8.21001C26.59 8.28001 26.59 8.38001 26.49 8.44001L25.92 8.76C25.8848 8.79304 25.8383 8.81144 25.79 8.81144C25.7417 8.81144 25.6953 8.79304 25.66 8.76L25.27 8.06C25.2531 8.01478 25.254 7.9648 25.2725 7.92022C25.2911 7.87564 25.326 7.83982 25.37 7.82001L25.94 7.50001Z" fill="#1C4670"/>
<path d="M31.4501 4.38003C31.4065 4.39791 31.3711 4.43134 31.3507 4.47384C31.3304 4.51634 31.3266 4.56487 31.3401 4.61002L31.7401 5.31002C31.7569 5.32757 31.777 5.34153 31.7994 5.35107C31.8217 5.36061 31.8458 5.36553 31.8701 5.36553C31.8943 5.36553 31.9184 5.36061 31.9407 5.35107C31.9631 5.34153 31.9832 5.32757 32 5.31002L32.57 4.99003C32.6134 4.97223 32.648 4.93824 32.6667 4.8953C32.6854 4.85236 32.6866 4.80383 32.6701 4.76002L32.2701 4.06002C32.2701 3.98002 32.1201 3.97002 32.0201 4.06002L31.4501 4.38003Z" fill="#1C4670"/>
<path d="M26.88 8.87002C26.8998 8.82597 26.9357 8.79112 26.9803 8.77255C27.0248 8.75397 27.0748 8.75307 27.12 8.77003L27.82 9.18003C27.89 9.18003 27.9 9.34003 27.82 9.44003L27.49 10C27.43 10.1 27.33 10.14 27.26 10.1L26.56 9.69003C26.5428 9.67411 26.529 9.65478 26.5195 9.63327C26.5101 9.61175 26.5052 9.58852 26.5052 9.56503C26.5052 9.54154 26.5101 9.51831 26.5195 9.49679C26.529 9.47528 26.5428 9.45595 26.56 9.44003L26.88 8.87002Z" fill="#1C4670"/>
<path d="M30.09 3.40998C30.059 3.44621 30.042 3.49232 30.042 3.53999C30.042 3.58766 30.059 3.63375 30.09 3.66998L30.79 4.06999C30.86 4.11999 30.97 4.06998 31.02 3.96998L31.35 3.40998C31.41 3.30998 31.35 3.19998 31.35 3.15998L30.69 2.71998C30.6448 2.70303 30.5948 2.70392 30.5502 2.7225C30.5056 2.74107 30.4698 2.77594 30.45 2.81999L30.09 3.40998Z" fill="#1C4670"/>
<path d="M28.99 3.02003C28.3152 3.0141 27.6538 3.20854 27.0895 3.57873C26.5252 3.94892 26.0835 4.47821 25.8202 5.09959C25.557 5.72097 25.484 6.4065 25.6105 7.06938C25.7371 7.73226 26.0575 8.34268 26.5312 8.82336C27.0049 9.30404 27.6105 9.63337 28.2715 9.76965C28.9324 9.90592 29.6189 9.84301 30.2441 9.58889C30.8693 9.33477 31.405 8.90087 31.7834 8.34211C32.1619 7.78335 32.366 7.12486 32.37 6.45002C32.3753 5.54735 32.0225 4.6794 31.3889 4.03643C30.7553 3.39347 29.8926 3.02795 28.99 3.02003V3.02003ZM28.99 8.66003C28.547 8.65606 28.1151 8.52081 27.749 8.27139C27.3828 8.02197 27.0989 7.66957 26.933 7.25877C26.7671 6.84797 26.7268 6.39722 26.8171 5.9635C26.9074 5.52978 27.1243 5.13258 27.4404 4.82212C27.7564 4.51167 28.1574 4.30191 28.5927 4.21935C29.0279 4.1368 29.4779 4.18517 29.8857 4.35835C30.2935 4.53152 30.6407 4.82172 30.8836 5.19226C31.1264 5.56279 31.2539 5.99702 31.25 6.44003C31.2488 6.73802 31.1879 7.03275 31.0709 7.3068C30.9539 7.58086 30.7831 7.82867 30.5687 8.03562C30.3543 8.24257 30.1006 8.40445 29.8226 8.5117C29.5445 8.61894 29.2478 8.66938 28.95 8.66003H28.99Z" fill="#1C4670"/>
<path d="M31.78 55.72C31.7327 55.7175 31.6864 55.7056 31.6437 55.6851C31.6009 55.6646 31.5627 55.6359 31.5311 55.6006C31.4995 55.5653 31.4752 55.5241 31.4596 55.4794C31.444 55.4347 31.4373 55.3873 31.44 55.34V50.16C31.4647 49.6821 31.3001 49.2137 30.9819 48.8562C30.6637 48.4987 30.2176 48.281 29.74 48.25H23.2C22.9013 48.34 22.5857 48.3589 22.2783 48.3051C21.971 48.2513 21.6806 48.1264 21.4302 47.9403C21.1798 47.7542 20.9764 47.5121 20.8362 47.2334C20.6961 46.9547 20.6231 46.647 20.6231 46.3351C20.6231 46.0231 20.6961 45.7154 20.8362 45.4367C20.9764 45.158 21.1798 44.9159 21.4302 44.7298C21.6806 44.5437 21.971 44.4188 22.2783 44.365C22.5857 44.3112 22.9013 44.3301 23.2 44.42H40.5C41.5 44.42 42.2 43.86 42.2 43.36C42.2 42.86 41.5 42.3 40.5 42.3H30.94C30.6389 42.3291 30.335 42.2948 30.0479 42.1994C29.7608 42.1041 29.4968 41.9497 29.2729 41.7464C29.049 41.543 28.8701 41.295 28.7476 41.0184C28.6252 40.7417 28.5619 40.4426 28.5619 40.14C28.5619 39.8375 28.6252 39.5384 28.7476 39.2617C28.8701 38.9851 29.049 38.7371 29.2729 38.5337C29.4968 38.3303 29.7608 38.176 30.0479 38.0807C30.335 37.9853 30.6389 37.951 30.94 37.98H39.88C40.0908 38.0196 40.3078 38.0122 40.5155 37.9583C40.7231 37.9045 40.9164 37.8055 41.0814 37.6685C41.2465 37.5315 41.3794 37.3598 41.4706 37.1656C41.5617 36.9715 41.609 36.7596 41.609 36.545C41.609 36.3305 41.5617 36.1186 41.4706 35.9245C41.3794 35.7303 41.2465 35.5586 41.0814 35.4216C40.9164 35.2846 40.7231 35.1856 40.5155 35.1318C40.3078 35.0779 40.0908 35.0705 39.88 35.11H22.96C22.3146 35.0943 21.7017 34.8234 21.2556 34.3567C20.8095 33.89 20.5666 33.2655 20.58 32.62V30.5201C20.58 30.4299 20.6158 30.3434 20.6796 30.2796C20.7433 30.2159 20.8298 30.1801 20.92 30.1801C21.0102 30.1801 21.0967 30.2159 21.1604 30.2796C21.2242 30.3434 21.26 30.4299 21.26 30.5201V32.62C21.2587 32.8446 21.3016 33.0672 21.3863 33.2752C21.471 33.4832 21.5959 33.6724 21.7538 33.8321C21.9116 33.9919 22.0994 34.1189 22.3064 34.2061C22.5133 34.2932 22.7354 34.3387 22.96 34.34H39.88C40.1821 34.3197 40.4851 34.3616 40.7702 34.4632C41.0554 34.5648 41.3167 34.7239 41.5378 34.9307C41.759 35.1374 41.9353 35.3874 42.0558 35.6651C42.1764 35.9428 42.2386 36.2423 42.2386 36.545C42.2386 36.8478 42.1764 37.1473 42.0558 37.425C41.9353 37.7027 41.759 37.9527 41.5378 38.1594C41.3167 38.3662 41.0554 38.5253 40.7702 38.6269C40.4851 38.7285 40.1821 38.7704 39.88 38.75H30.94C30.7333 38.7069 30.5197 38.7103 30.3145 38.7602C30.1094 38.81 29.9179 38.9049 29.7541 39.0381C29.5902 39.1712 29.4582 39.3392 29.3674 39.5298C29.2767 39.7205 29.2297 39.9289 29.2297 40.14C29.2297 40.3512 29.2767 40.5596 29.3674 40.7502C29.4582 40.9409 29.5902 41.1089 29.7541 41.242C29.9179 41.3752 30.1094 41.4701 30.3145 41.5199C30.5197 41.5698 30.7333 41.5732 30.94 41.53H40.5C41.83 41.53 42.88 42.33 42.88 43.36C42.88 44.39 41.88 45.1801 40.5 45.1801H23.2C22.28 45.1801 21.5 45.71 21.5 46.33C21.5 46.95 22.28 47.4901 23.2 47.4901H29.74C30.4086 47.5313 31.0339 47.835 31.4796 48.3351C31.9254 48.8352 32.1556 49.4911 32.12 50.16V55.34C32.1229 55.4349 32.0892 55.5272 32.0259 55.598C31.9626 55.6687 31.8746 55.7124 31.78 55.72V55.72Z" fill="#1C4670"/>
<path d="M29.57 40.34C29.3673 40.34 29.1655 40.3131 28.97 40.26C28.7743 40.3124 28.5726 40.3393 28.37 40.34H8.51997C8.04339 40.3374 7.58708 40.1469 7.25008 39.8099C6.91308 39.4729 6.7226 39.0166 6.71997 38.54V7.94002C6.7226 7.46344 6.91308 7.00712 7.25008 6.67012C7.58708 6.33312 8.04339 6.14264 8.51997 6.14001H27.17C27.8202 6.1429 28.4519 6.35698 28.97 6.75002C29.488 6.35698 30.1197 6.1429 30.77 6.14001H49.41C49.8883 6.14001 50.3472 6.32933 50.6863 6.66661C51.0255 7.00389 51.2173 7.46171 51.22 7.94002V38.54C51.2173 39.0183 51.0255 39.4761 50.6863 39.8134C50.3472 40.1507 49.8883 40.34 49.41 40.34H29.57Z" fill="#768296"/>
<path d="M49.41 7.33997H30.77C30.2935 7.34259 29.8372 7.53309 29.5002 7.87009C29.1632 8.20708 28.9727 8.66339 28.97 9.13997C28.9674 8.66339 28.7769 8.20708 28.4399 7.87009C28.1029 7.53309 27.6466 7.34259 27.17 7.33997H8.52005C8.36092 7.33997 8.2083 7.40318 8.09578 7.5157C7.98326 7.62822 7.92004 7.78084 7.92004 7.93997V38.54C7.92004 38.6991 7.98326 38.8517 8.09578 38.9642C8.2083 39.0768 8.36092 39.14 8.52005 39.14H28.37C28.7 39.14 28.97 38.99 28.97 38.81C28.97 38.99 29.24 39.14 29.57 39.14H49.41C49.5692 39.14 49.7218 39.0768 49.8343 38.9642C49.9468 38.8517 50.01 38.6991 50.01 38.54V7.93997C50.01 7.78084 49.9468 7.62822 49.8343 7.5157C49.7218 7.40318 49.5692 7.33997 49.41 7.33997V7.33997Z" fill="url(#paint0_linear_201_1276)"/>
<path d="M28.97 22.22V9.13997C28.9674 8.66339 28.7769 8.20708 28.4399 7.87009C28.1029 7.53309 27.6466 7.34259 27.17 7.33997H8.52005C8.36092 7.33997 8.2083 7.40318 8.09578 7.5157C7.98326 7.62822 7.92004 7.78084 7.92004 7.93997V38.54C7.92004 38.6991 7.98326 38.8517 8.09578 38.9642C8.2083 39.0768 8.36092 39.14 8.52005 39.14H28.37C28.7 39.14 28.97 38.99 28.97 38.81V22.22Z" fill="white"/>
<path d="M28.97 22.22V9.13997C28.9726 8.66339 29.1631 8.20708 29.5001 7.87009C29.8371 7.53309 30.2934 7.34259 30.77 7.33997H49.41C49.5691 7.33997 49.7217 7.40318 49.8342 7.5157C49.9468 7.62822 50.01 7.78084 50.01 7.93997V38.54C50.01 38.6991 49.9468 38.8517 49.8342 38.9642C49.7217 39.0768 49.5691 39.14 49.41 39.14H29.57C29.24 39.14 28.97 38.99 28.97 38.81V22.22Z" fill="white"/>
<path d="M26.67 9.39001H9.67004V12.52H26.67V9.39001Z" fill="#FFA229"/>
<path d="M26.67 13.59H9.67004V14.69H26.67V13.59Z" fill="#AEBFCE"/>
<path d="M26.67 17.79H9.67004V18.89H26.67V17.79Z" fill="#AEBFCE"/>
<path d="M26.67 19.89H9.67004V20.99H26.67V19.89Z" fill="#AEBFCE"/>
<path d="M26.67 21.99H9.67004V23.09H26.67V21.99Z" fill="#AEBFCE"/>
<path d="M26.67 25.59H9.67004V26.69H26.67V25.59Z" fill="#AEBFCE"/>
<path d="M26.67 27.6899H9.67004V28.7899H26.67V27.6899Z" fill="#AEBFCE"/>
<path d="M26.67 31.89H9.67004V32.99H26.67V31.89Z" fill="#AEBFCE"/>
<path d="M26.67 33.99H9.67004V35.09H26.67V33.99Z" fill="#AEBFCE"/>
<path d="M48.27 9.39001H31.27V10.49H48.27V9.39001Z" fill="#AEBFCE"/>
<path d="M48.27 11.49H31.27V12.59H48.27V11.49Z" fill="#AEBFCE"/>
<path d="M48.27 15.09H31.27V16.19H48.27V15.09Z" fill="#AEBFCE"/>
<path d="M48.27 17.1899H31.27V18.2899H48.27V17.1899Z" fill="#AEBFCE"/>
<path d="M48.27 19.29H31.27V20.39H48.27V19.29Z" fill="#AEBFCE"/>
<path d="M48.27 25.59H31.27V26.69H48.27V25.59Z" fill="#AEBFCE"/>
<path d="M48.27 27.6899H31.27V28.7899H48.27V27.6899Z" fill="#AEBFCE"/>
<path d="M48.27 29.79H31.27V30.89H48.27V29.79Z" fill="#AEBFCE"/>
<path d="M48.27 33.99H31.27V35.09H48.27V33.99Z" fill="#AEBFCE"/>
<path d="M36.34 6.14001H34.15V30.34L36.34 29.11L38.52 30.34V6.14001H36.34Z" fill="#1C4670"/>
<path d="M36.45 60.28C36.4473 61.5195 35.9531 62.7073 35.0757 63.5828C34.1983 64.4583 33.0095 64.95 31.77 64.95C30.5314 64.95 29.3436 64.458 28.4678 63.5822C27.592 62.7064 27.1 61.5186 27.1 60.28V54.57C27.1 53.3305 27.5917 52.1417 28.4672 51.2643C29.3427 50.3869 30.5305 49.8927 31.77 49.89V49.89C33.0104 49.8927 34.1992 50.3866 35.0763 51.2637C35.9534 52.1408 36.4473 53.3296 36.45 54.57V60.28Z" fill="#768296"/>
<path d="M27.1 54.57V55.72H31.77V49.89C30.5305 49.8927 29.3427 50.3869 28.4672 51.2643C27.5917 52.1417 27.1 53.3305 27.1 54.57V54.57Z" fill="#AEBFCE"/>
<path d="M36.45 54.57C36.4474 53.3296 35.9535 52.1408 35.0764 51.2637C34.1993 50.3866 33.0104 49.8927 31.77 49.89V55.72H36.45V54.57Z" fill="url(#paint1_linear_201_1276)"/>
<path d="M36.45 54.57C36.4474 53.3296 35.9535 52.1408 35.0764 51.2637C34.1993 50.3866 33.0104 49.8927 31.77 49.89V55.72H36.45V54.57Z" fill="#AEBFCE"/>
<path d="M32.44 56.13C32.44 56.3077 32.3694 56.4781 32.2437 56.6038C32.1181 56.7294 31.9477 56.8 31.77 56.8C31.5923 56.8 31.4219 56.7294 31.2962 56.6038C31.1706 56.4781 31.1 56.3077 31.1 56.13V55.31C31.1 55.1323 31.1706 54.9619 31.2962 54.8363C31.4219 54.7106 31.5923 54.64 31.77 54.64C31.9477 54.64 32.1181 54.7106 32.2437 54.8363C32.3694 54.9619 32.44 55.1323 32.44 55.31V56.13Z" fill="#1C4670"/>
<path d="M60.27 5.33005C60.27 5.33005 59.5 4.33006 57.69 5.04006C56.27 5.55006 49.75 11.4201 50.45 13.9601C50.45 13.9601 50.97 14.05 51.7 12.48C52.3192 10.9699 53.2494 9.60704 54.43 8.48004C55.97 6.95004 58.07 5.48005 58.77 6.13005L60.27 5.33005Z" fill="#FFA229"/>
<path d="M55.27 17.7199C51.35 23.0299 46.42 27.5499 45.15 26.6199C43.88 25.6899 46.76 19.6199 50.68 14.3299C54.6 9.03994 60.01 3.84994 61.28 4.77994C62.55 5.70994 59.18 12.4299 55.27 17.7199Z" fill="#1C4670"/>
<path d="M48.2399 22.45C47.6449 22.007 46.9636 21.6936 46.2399 21.53C44.9799 24.11 44.4399 26.12 45.1299 26.63C45.8199 27.14 47.5899 26.03 49.6799 24.07C49.3135 23.4389 48.8238 22.888 48.2399 22.45Z" fill="#FFA229"/>
<path d="M55 18.5501C54.64 19.0401 54.27 19.37 53.73 18.97L49.95 16.17C49.41 15.78 49.62 15.33 49.95 14.84C50.31 14.36 50.67 14.0301 51.21 14.4301L55 17.22C55.54 17.62 55.33 18.0701 55 18.5501V18.5501Z" fill="url(#paint2_linear_201_1276)"/>
<path d="M45.55 26.09C45.3366 25.9379 45.0953 25.8291 44.84 25.77C44.4 26.68 44.21 27.39 44.45 27.57C44.69 27.75 45.32 27.36 46.07 26.67C45.9363 26.4445 45.7597 26.2474 45.55 26.09V26.09Z" fill="url(#paint3_linear_201_1276)"/>
<path d="M55 18.5501C54.64 19.0401 54.27 19.37 53.73 18.97L49.95 16.17C49.41 15.78 49.62 15.33 49.95 14.84C50.31 14.36 50.67 14.0301 51.21 14.4301L55 17.22C55.54 17.62 55.33 18.0701 55 18.5501V18.5501Z" fill="#FFA229"/>
<path d="M1.02002 18.3301C1.02002 18.3301 1.63002 17.5701 3.08002 18.1001C4.21002 18.5101 9.40002 23.1801 8.85002 25.2101C8.85002 25.2101 8.43002 25.2901 7.85002 24.0401C7.36215 22.8368 6.62615 21.7498 5.69002 20.8501C4.47002 19.6301 2.79002 18.44 2.23002 18.98L1.02002 18.3301Z" fill="#FFA229"/>
<path d="M5.00997 28.22C8.12997 32.45 12.01 36.05 13.07 35.31C14.13 34.57 11.79 29.72 8.68998 25.52C5.58998 21.32 1.24997 17.16 0.239975 17.91C-0.770025 18.66 1.87997 23.99 5.00997 28.22Z" fill="#1C4670"/>
<path d="M10.6099 31.98C11.0805 31.6279 11.6182 31.3761 12.1899 31.24C13.1899 33.3 13.6099 34.91 13.0699 35.31C12.5299 35.71 11.0699 34.83 9.43994 33.31C9.7307 32.7883 10.1296 32.3349 10.6099 31.98V31.98Z" fill="#FFA229"/>
<path d="M5.21996 28.87C5.50996 29.26 5.79996 29.52 6.21996 29.2L9.21996 26.98C9.64996 26.66 9.47996 26.3 9.21996 25.92C8.92996 25.53 8.63996 25.27 8.21996 25.59L5.21996 27.81C4.78996 28.13 4.95996 28.49 5.21996 28.87Z" fill="url(#paint4_linear_201_1276)"/>
<path d="M12.76 34.88C12.9265 34.7615 13.1127 34.6735 13.31 34.62C13.67 35.35 13.82 35.92 13.62 36.06C13.42 36.2 12.93 35.9 12.34 35.34C12.4467 35.1593 12.5897 35.0027 12.76 34.88V34.88Z" fill="#1C4670"/>
<path d="M5.21996 28.87C5.50996 29.26 5.79996 29.52 6.21996 29.2L9.21996 26.98C9.64996 26.66 9.47996 26.3 9.21996 25.92C8.92996 25.53 8.63996 25.27 8.21996 25.59L5.21996 27.81C4.78996 28.13 4.95996 28.49 5.21996 28.87Z" fill="#FFA229"/>
</g>
<defs>
<linearGradient id="paint0_linear_201_1276" x1="28.97" y1="36.02" x2="28.97" y2="4.21997" gradientUnits="userSpaceOnUse">
<stop stop-color="#CDEFFA"/>
<stop offset="1" stop-color="#FAFAFA"/>
</linearGradient>
<linearGradient id="paint1_linear_201_1276" x1="34.11" y1="55.72" x2="34.11" y2="49.89" gradientUnits="userSpaceOnUse">
<stop stop-color="#CDEFFA"/>
<stop offset="1" stop-color="#FAFAFA"/>
</linearGradient>
<linearGradient id="paint2_linear_201_1276" x1="49.9696" y1="14.8379" x2="54.9896" y2="18.5444" gradientUnits="userSpaceOnUse">
<stop stop-color="#BDBDBD"/>
<stop offset="0.12" stop-color="#ABABAB"/>
<stop offset="0.32" stop-color="#919191"/>
<stop offset="0.53" stop-color="#7F7F7F"/>
<stop offset="0.76" stop-color="#747474"/>
<stop offset="1" stop-color="#707070"/>
</linearGradient>
<linearGradient id="paint3_linear_201_1276" x1="44.384" y1="26.3761" x2="45.6068" y2="27.279" gradientUnits="userSpaceOnUse">
<stop stop-color="#286891"/>
<stop offset="0.01" stop-color="#276790"/>
<stop offset="0.24" stop-color="#1C5176"/>
<stop offset="0.48" stop-color="#144264"/>
<stop offset="0.73" stop-color="#103959"/>
<stop offset="1" stop-color="#0E3655"/>
</linearGradient>
<linearGradient id="paint4_linear_201_1276" x1="10.5512" y1="24.4828" x2="6.56716" y2="27.421" gradientUnits="userSpaceOnUse">
<stop stop-color="#BDBDBD"/>
<stop offset="0.12" stop-color="#ABABAB"/>
<stop offset="0.32" stop-color="#919191"/>
<stop offset="0.53" stop-color="#7F7F7F"/>
<stop offset="0.76" stop-color="#747474"/>
<stop offset="1" stop-color="#707070"/>
</linearGradient>
<clipPath id="clip0_201_1276">
<rect width="61.55" height="64.95" fill="white"/>
</clipPath>
</defs>
</svg>
