<svg width="60" height="60" viewBox="0 0 60 60" fill="none" xmlns="http://www.w3.org/2000/svg">
<g clip-path="url(#clip0_201_1361)">
<path d="M40.39 14.45H36.48V19.14H40.39V14.45Z" fill="#FCD751"/>
<path d="M42.21 14.8H34.66L38.43 9.84998L42.21 14.8Z" fill="#FCD751"/>
<path d="M5.85005 12.73H4.18005V59.78H5.85005V12.73Z" fill="#1C4670"/>
<path d="M50.78 54.77H0V56.44H50.78V54.77Z" fill="#1C4670"/>
<path d="M15.96 41.62H8.22998V52.39H15.96V41.62Z" fill="#AEBFCE"/>
<path d="M23.71 37.74H15.98V52.39H23.71V37.74Z" fill="#FFA229"/>
<path d="M31.47 30.4301H23.74V52.3901H31.47V30.4301Z" fill="#1C4670"/>
<path d="M39.22 25.0601H31.49V52.3901H39.22V25.0601Z" fill="#FFA229"/>
<path d="M46.97 17.98H39.24V52.39H46.97V17.98Z" fill="#AEBFCE"/>
<path d="M11.98 38.11L10.5 37.08L14.87 30.83H18.87L22.97 23.05H27.11L31.19 17.09H35.23L39.2 9.83001L40.66 8.26001L41.99 9.48001L40.61 10.97L36.31 18.9H32.14L28.07 24.85H24.06L19.96 32.63H15.81L11.98 38.11Z" fill="#1C4670"/>
<path d="M43.24 12.07L44.83 5.05005L37.95 7.18005L43.24 12.07Z" fill="#1C4670"/>
<path d="M56.8 38.1H51.65V44.28H56.8V38.1Z" fill="#FCD751"/>
<path d="M59.19 38.56H49.25L54.22 32.04L59.19 38.56Z" fill="#FCD751"/>
<path d="M15.7199 24.04H10.5699V30.22H15.7199V24.04Z" fill="#FCD751"/>
<path d="M18.11 24.51H8.17004L13.14 17.99L18.11 24.51Z" fill="#FCD751"/>
<path d="M26.87 3.82996H23.62V7.72996H26.87V3.82996Z" fill="#FCD751"/>
<path d="M28.39 4.12H22.11L25.25 0L28.39 4.12Z" fill="#FCD751"/>
</g>
<defs>
<clipPath id="clip0_201_1361">
<rect width="59.19" height="59.79" fill="white"/>
</clipPath>
</defs>
</svg>
