<svg width="165" height="162" viewBox="0 0 165 162" fill="none" xmlns="http://www.w3.org/2000/svg">
<path d="M82.1721 98.3661L85.1642 125.197H50.4545L54.9757 98.3661H82.1721Z" fill="url(#paint0_linear_202_180)"/>
<path d="M142.569 30.3412V93.5749C142.57 96.0768 141.594 98.4801 139.848 100.272C138.102 102.064 135.725 103.103 133.224 103.168C110.128 103.763 29.35 105.207 7.36444 104.883C5.54576 104.856 3.80785 104.127 2.51317 102.85C1.21849 101.572 0.467024 99.8441 0.415482 98.0259C-0.00894952 83.3359 -0.696805 48.0115 1.85095 31.6115C2.11027 29.938 2.94628 28.4076 4.21443 27.2852C5.48258 26.1627 7.10313 25.5188 8.79581 25.4646C28.1475 24.8452 113.778 22.88 135.753 23.3735C137.574 23.4142 139.307 24.166 140.581 25.4682C141.855 26.7704 142.569 28.5195 142.569 30.3412Z" fill="#1C4670"/>
<path d="M138.602 30.0339V90.1128C138.601 91.5722 138.026 92.9727 137.002 94.012C135.977 95.0512 134.585 95.6458 133.126 95.6673L10.5259 97.1818C9.81073 97.1925 9.10054 97.0613 8.43644 96.7957C7.77233 96.5301 7.16749 96.1354 6.65692 95.6345C6.14634 95.1337 5.74017 94.5365 5.46191 93.8776C5.18364 93.2187 5.03882 92.5112 5.0358 91.7959L4.8309 32.2585C4.82692 31.2235 5.22876 30.2281 5.95022 29.486C6.67168 28.7438 7.65528 28.314 8.69 28.2888L134.211 25.7492C134.783 25.7353 135.351 25.8358 135.883 26.0449C136.415 26.254 136.9 26.5674 137.309 26.9666C137.718 27.3659 138.043 27.8429 138.265 28.3697C138.487 28.8965 138.602 29.4623 138.602 30.0339V30.0339Z" fill="url(#paint1_linear_202_180)"/>
<path opacity="0.65" d="M4.11423 99.6711H4.11775L138.605 97.3797C138.657 97.3789 138.707 97.3573 138.744 97.3196C138.78 97.282 138.8 97.2315 138.799 97.1792C138.798 97.1269 138.777 97.077 138.739 97.0406C138.701 97.0043 138.651 96.9843 138.599 96.9851L4.1113 99.2771C4.06092 99.2802 4.01364 99.3024 3.9792 99.3394C3.94475 99.3763 3.92575 99.425 3.92613 99.4754C3.9265 99.5259 3.94622 99.5743 3.98121 99.6107C4.0162 99.6471 4.06381 99.6687 4.11423 99.6711V99.6711Z" fill="white"/>
<path d="M42.978 130.687H93.7775C95.1579 130.687 96.1941 129.704 95.9271 128.649L95.2756 126.073C95.0794 125.298 94.2265 124.727 93.2131 124.698L44.2408 123.169C43.1824 123.136 42.2451 123.696 42.0162 124.504L40.8413 128.61C40.5345 129.674 41.5754 130.687 42.978 130.687Z" fill="url(#paint2_linear_202_180)"/>
<path d="M138.602 30.0339V90.1128C138.601 91.5722 138.026 92.9727 137.002 94.012C135.977 95.0512 134.585 95.6458 133.126 95.6673L10.5259 97.1818C9.81073 97.1925 9.10054 97.0613 8.43644 96.7957C7.77233 96.5301 7.16749 96.1354 6.65692 95.6345C6.14634 95.1337 5.74017 94.5365 5.46191 93.8776C5.18364 93.2187 5.03882 92.5112 5.0358 91.7959L4.8309 32.2585C4.82692 31.2235 5.22876 30.2281 5.95022 29.486C6.67168 28.7438 7.65528 28.314 8.69 28.2888L134.211 25.7492C134.783 25.7353 135.351 25.8358 135.883 26.0449C136.415 26.254 136.9 26.5674 137.309 26.9666C137.718 27.3659 138.043 27.8429 138.265 28.3697C138.487 28.8965 138.602 29.4623 138.602 30.0339V30.0339Z" fill="#FCD751"/>
<path d="M4.85663 39.2186L4.83263 32.2409C4.82898 31.2067 5.23115 30.2123 5.95273 29.4713C6.67431 28.7303 7.65774 28.302 8.69173 28.2782L134.179 25.7457C136.587 25.6871 138.538 27.6261 138.538 30.0339V39.2186H4.85663Z" fill="#FFA229"/>
<path opacity="0.74" d="M130.529 35.3559C129.735 35.3559 129.092 34.7124 129.092 33.9187C129.092 33.1249 129.735 32.4814 130.529 32.4814C131.323 32.4814 131.966 33.1249 131.966 33.9187C131.966 34.7124 131.323 35.3559 130.529 35.3559Z" fill="white"/>
<path opacity="0.74" d="M125.55 35.3559C124.756 35.3559 124.113 34.7124 124.113 33.9187C124.113 33.1249 124.756 32.4814 125.55 32.4814C126.344 32.4814 126.987 33.1249 126.987 33.9187C126.987 34.7124 126.344 35.3559 125.55 35.3559Z" fill="white"/>
<path opacity="0.74" d="M120.724 35.3559C119.93 35.3559 119.287 34.7124 119.287 33.9187C119.287 33.1249 119.93 32.4814 120.724 32.4814C121.518 32.4814 122.161 33.1249 122.161 33.9187C122.161 34.7124 121.518 35.3559 120.724 35.3559Z" fill="white"/>
<path opacity="0.42" d="M12.3042 93.897L130.15 92.1992C131.011 92.1863 131.832 91.8352 132.436 91.2218C133.04 90.6084 133.379 89.7819 133.379 88.9209V77.1264C133.379 76.7303 133.3 76.3382 133.148 75.9728C132.995 75.6073 132.772 75.2758 132.49 74.9973C132.208 74.7188 131.874 74.499 131.507 74.3506C131.14 74.2021 130.747 74.128 130.351 74.1325L12.227 75.479C11.5753 75.4862 10.9528 75.7502 10.4945 76.2136C10.0363 76.677 9.77929 77.3024 9.77933 77.9542V91.413C9.77968 91.7426 9.84553 92.0688 9.97305 92.3727C10.1006 92.6766 10.2872 92.9521 10.5222 93.1832C10.7571 93.4143 11.0356 93.5964 11.3416 93.719C11.6475 93.8415 11.9747 93.902 12.3042 93.897V93.897Z" fill="white"/>
<path opacity="0.42" d="M54.7317 72.6584L130.065 71.5748C130.949 71.562 131.792 71.2019 132.413 70.5722C133.034 69.9425 133.381 69.0939 133.381 68.2098V44.8889C133.381 44.5757 133.32 44.2656 133.2 43.9763C133.08 43.6869 132.905 43.424 132.683 43.2025C132.462 42.981 132.199 42.8053 131.91 42.6855C131.62 42.5656 131.31 42.5039 130.997 42.5039H55.2328C54.5066 42.5039 53.8102 42.7924 53.2967 43.3059C52.7832 43.8193 52.4948 44.5158 52.4948 45.2419V70.4537C52.4947 70.746 52.5528 71.0353 52.6656 71.3049C52.7784 71.5745 52.9437 71.819 53.1519 72.0242C53.36 72.2293 53.6069 72.3911 53.8781 72.4999C54.1493 72.6088 54.4394 72.6627 54.7317 72.6584V72.6584Z" fill="white"/>
<path opacity="0.42" d="M49.6133 42.5039H10.2888C10.1541 42.5039 10.025 42.5574 9.92985 42.6526C9.83467 42.7478 9.7812 42.8769 9.7812 43.0115V71.9594C9.7812 72.1535 9.85829 72.3396 9.99553 72.4769C10.1328 72.6141 10.3189 72.6912 10.513 72.6912H49.7796C49.9586 72.6912 50.1303 72.6201 50.2569 72.4935C50.3835 72.3669 50.4546 72.1952 50.4546 72.0162V43.3452C50.4546 43.122 50.366 42.9081 50.2082 42.7503C50.0504 42.5925 49.8365 42.5039 49.6133 42.5039V42.5039Z" fill="white"/>
<path d="M156.644 128.587C156.643 129.047 156.459 129.488 156.133 129.814C155.807 130.139 155.366 130.323 154.906 130.324H60.8985C60.438 130.323 59.9966 130.139 59.6708 129.814C59.345 129.488 59.1613 129.047 59.1598 128.587L58.3776 74.5634C58.3776 73.608 59.5034 71.7434 61.5658 71.8833L153.44 69.5059C154.033 69.4902 154.623 69.5953 155.175 69.8147C155.726 70.0341 156.228 70.3632 156.648 70.7822C157.068 71.2012 157.399 71.7013 157.621 72.252C157.842 72.8028 157.949 73.3928 157.935 73.9862L156.644 128.587Z" fill="#1C4670"/>
<path d="M154.928 126.921C154.927 127.356 154.753 127.774 154.445 128.082C154.137 128.39 153.719 128.564 153.283 128.565H63.1676C62.7318 128.564 62.3143 128.39 62.0061 128.082C61.698 127.774 61.5243 127.356 61.5231 126.921L60.7826 77.8775C60.8698 74.9264 63.4568 73.8656 65.0257 73.9283L153.078 71.5661C153.496 71.5547 153.911 71.6283 154.299 71.7825C154.687 71.9367 155.04 72.1682 155.335 72.4629C155.631 72.7576 155.864 73.1094 156.019 73.4969C156.175 73.8844 156.25 74.2994 156.24 74.7168L154.928 126.921Z" fill="#FCD751"/>
<path d="M163.94 134.808H53.7703C53.5877 134.808 53.4396 134.66 53.4396 134.477V130.392C53.4396 130.209 53.5877 130.061 53.7703 130.061H163.94C164.122 130.061 164.271 130.209 164.271 130.392V134.477C164.271 134.66 164.122 134.808 163.94 134.808Z" fill="#1C4670"/>
<path d="M60.8563 82.8231L60.7826 77.9097C60.8698 74.958 63.4568 73.8814 65.0257 73.944L153.078 71.5743C153.495 71.5623 153.91 71.6354 154.298 71.789C154.686 71.9426 155.038 72.1735 155.333 72.4676C155.63 72.7681 155.862 73.1251 156.017 73.5173C156.173 73.9096 156.248 74.329 156.237 74.7508L156.035 82.8237L60.8563 82.8231Z" fill="#FFA229"/>
<path d="M62.4944 103.622H62.4985C62.5618 103.62 62.6219 103.593 62.6657 103.548C62.7096 103.502 62.7336 103.441 62.7326 103.377L62.6741 99.3999C62.673 99.3366 62.6471 99.2762 62.602 99.2318C62.5569 99.1873 62.4962 99.1624 62.4329 99.1622H62.4294C62.3655 99.1633 62.3046 99.1897 62.26 99.2355C62.2155 99.2814 62.1909 99.343 62.1917 99.4069L62.2502 103.384C62.2512 103.448 62.2774 103.509 62.3232 103.554C62.3689 103.598 62.4305 103.623 62.4944 103.622V103.622Z" fill="white"/>
<path opacity="0.42" d="M62.3514 93.8754H62.355C62.3866 93.8749 62.4179 93.8682 62.447 93.8557C62.4761 93.8431 62.5024 93.825 62.5245 93.8022C62.5466 93.7795 62.5639 93.7527 62.5756 93.7232C62.5873 93.6938 62.5931 93.6623 62.5926 93.6307L62.369 78.3974C62.3731 77.4929 62.6477 76.7705 63.1851 76.2553C64.1885 75.2941 65.782 75.3432 65.8488 75.3462L93.9929 74.5916C94.0246 74.5907 94.0557 74.5837 94.0846 74.5708C94.1135 74.5578 94.1396 74.5394 94.1614 74.5164C94.1831 74.4933 94.2001 74.4663 94.2114 74.4367C94.2227 74.4071 94.228 74.3756 94.2271 74.3439C94.2276 74.3119 94.2215 74.28 94.2091 74.2505C94.1967 74.2209 94.1782 74.1942 94.1549 74.1722C94.1316 74.1502 94.104 74.1332 94.0738 74.1225C94.0435 74.1117 94.0114 74.1074 93.9794 74.1098L65.8529 74.8644C65.6772 74.8538 63.9795 74.8246 62.852 75.907C62.2162 76.5158 61.8919 77.3548 61.8866 78.4003L62.1108 93.6383C62.1118 93.7015 62.1375 93.7618 62.1825 93.8061C62.2276 93.8505 62.2882 93.8754 62.3514 93.8754V93.8754Z" fill="white"/>
<path opacity="0.42" d="M99.0973 85.2192H151.591C151.953 85.2192 152.245 85.512 152.245 85.8732V107.154C152.245 107.515 151.953 107.808 151.591 107.808H99.0973C98.7361 107.808 98.4433 107.515 98.4433 107.154V85.8732C98.4433 85.512 98.7361 85.2192 99.0973 85.2192Z" fill="white"/>
<path opacity="0.42" d="M63.9327 85.2192H95.1679C95.4265 85.2192 95.6362 85.4289 95.6362 85.6876V107.339C95.6362 107.598 95.4265 107.808 95.1679 107.808H63.9327C63.6741 107.808 63.4644 107.598 63.4644 107.339V85.6876C63.4644 85.4289 63.6741 85.2192 63.9327 85.2192Z" fill="white"/>
<path opacity="0.42" d="M64.0404 111.093H151.67C151.988 111.093 152.245 111.351 152.245 111.669V125.85C152.245 126.168 151.988 126.426 151.67 126.426H64.0404C63.7226 126.426 63.465 126.168 63.465 125.85V111.669C63.465 111.351 63.7226 111.093 64.0404 111.093Z" fill="white"/>
<path opacity="0.74" d="M150.435 77.2138C150.335 76.5973 150.753 76.016 151.37 75.9154C151.986 75.8148 152.567 76.2329 152.668 76.8494C152.769 77.4659 152.35 78.0473 151.734 78.1479C151.117 78.2485 150.536 77.8303 150.435 77.2138Z" fill="white"/>
<path opacity="0.74" d="M147.782 78.2792C147.157 78.2792 146.651 77.7728 146.651 77.1481C146.651 76.5235 147.157 76.0171 147.782 76.0171C148.406 76.0171 148.913 76.5235 148.913 77.1481C148.913 77.7728 148.406 78.2792 147.782 78.2792Z" fill="white"/>
<path opacity="0.74" d="M144.263 78.4882C143.638 78.4882 143.132 77.9818 143.132 77.3571C143.132 76.7325 143.638 76.2261 144.263 76.2261C144.888 76.2261 145.394 76.7325 145.394 77.3571C145.394 77.9818 144.888 78.4882 144.263 78.4882Z" fill="white"/>
<path d="M77.0509 94.4906C77.2511 103.955 77.9015 136.599 77.5912 148.167C77.5584 149.393 76.7183 150.377 75.671 150.417C70.4894 150.615 51.4931 151.119 43.0203 150.702C41.2552 150.616 39.8514 148.942 39.8151 146.877C39.6394 136.942 39.2501 109.003 40.1739 96.2042C40.2846 94.6704 41.3132 93.4492 42.6222 93.2964C48.2651 92.636 67.341 91.0214 74.6629 91.5776C75.983 91.6777 77.0181 92.9428 77.0509 94.4906Z" fill="#1C4670"/>
<path d="M74.739 97.3943C75.0177 105.033 75.8976 130.446 75.6172 139.843C75.5762 141.216 74.6512 142.327 73.478 142.407C68.6495 142.738 52.1751 143.466 45.0927 142.803C43.817 142.686 42.8165 141.477 42.7474 139.982C42.3886 132.189 41.3582 108.527 41.6258 99.2366C41.6685 97.7544 42.6503 96.5437 43.913 96.4108C49.1368 95.8623 66.6426 94.5568 72.6608 94.9408C73.7918 95.0111 74.6904 96.0718 74.739 97.3943Z" fill="#FCD751"/>
<path opacity="0.5" d="M64.2458 93.2314C64.2458 93.5241 64.0521 93.7612 63.8044 93.7764C62.5803 93.8513 59.1334 94.0633 57.5925 94.1681C57.2887 94.1885 57.0504 93.8689 57.1078 93.5194L57.1177 93.4609C57.157 93.2226 57.3262 93.0429 57.5328 93.0206C58.5743 92.9094 61.7168 92.5997 63.7968 92.6864C64.0492 92.6957 64.2458 92.9381 64.2458 93.2314Z" fill="white"/>
<path d="M41.5848 102.126C41.5889 101.099 41.6029 100.09 41.6269 99.2442C41.6697 97.7619 42.6514 96.5465 43.9142 96.4142C49.1379 95.8651 66.6438 94.5573 72.6619 94.9413C73.7918 95.0139 74.6904 96.0823 74.739 97.4048C74.7823 98.5897 74.8133 99.5234 74.8789 101.372L41.5848 102.126Z" fill="#FFA229"/>
<path opacity="0.42" d="M58.4684 118.406H72.0836C72.8885 118.406 73.5413 117.735 73.5413 116.906V104.95C73.5413 104.193 72.9354 103.584 72.2001 103.604L58.4584 103.942C57.7027 103.961 57.0991 104.597 57.0991 105.376V116.998C57.0991 117.775 57.712 118.406 58.4684 118.406Z" fill="white"/>
<path opacity="0.42" d="M55.4862 103.974H43.6853C43.5757 103.974 43.4706 104.017 43.3931 104.095C43.3156 104.172 43.272 104.278 43.272 104.387V117.965C43.272 118.082 43.3185 118.195 43.4011 118.277C43.4838 118.36 43.5959 118.406 43.7128 118.406H55.3703C55.5101 118.406 55.6441 118.351 55.7429 118.252C55.8417 118.153 55.8972 118.019 55.8972 117.879V104.384C55.8973 104.33 55.8867 104.277 55.8661 104.227C55.8454 104.177 55.8152 104.132 55.777 104.094C55.7388 104.056 55.6935 104.025 55.6436 104.005C55.5937 103.984 55.5402 103.974 55.4862 103.974V103.974Z" fill="white"/>
<path opacity="0.42" d="M73.6471 120.302H43.7116C43.5942 120.302 43.4816 120.349 43.3986 120.432C43.3156 120.515 43.269 120.627 43.269 120.744V129.701C43.269 129.814 43.3136 129.922 43.3931 130.001C43.4726 130.081 43.5804 130.125 43.6928 130.125H73.5611C73.6853 130.125 73.8044 130.076 73.8922 129.988C73.9801 129.9 74.0294 129.781 74.0294 129.657V120.68C74.0288 120.579 73.9882 120.483 73.9165 120.412C73.8448 120.341 73.748 120.301 73.6471 120.302V120.302Z" fill="white"/>
<path opacity="0.42" d="M46.4596 141.211L72.6415 140.846C73.4171 140.835 74.04 140.269 74.04 139.575V133.237C74.04 132.625 73.4862 132.13 72.803 132.13H45.2595C44.6062 132.13 44.0764 132.603 44.0746 133.187L44.057 139.089C44.0535 140.273 45.1366 141.23 46.4596 141.211Z" fill="white"/>
<path opacity="0.74" d="M71.3581 99.6647C70.9973 99.3039 70.9973 98.719 71.3581 98.3583C71.7188 97.9975 72.3038 97.9975 72.6645 98.3583C73.0253 98.719 73.0253 99.3039 72.6645 99.6647C72.3038 100.025 71.7188 100.025 71.3581 99.6647Z" fill="white"/>
<path opacity="0.74" d="M68.2774 99.7534C67.9166 99.3927 67.9166 98.8078 68.2774 98.447C68.6382 98.0862 69.2231 98.0862 69.5838 98.447C69.9446 98.8078 69.9446 99.3927 69.5838 99.7534C69.2231 100.114 68.6382 100.114 68.2774 99.7534Z" fill="white"/>
<path opacity="0.74" d="M65.161 99.4766C65.0438 98.9801 65.3513 98.4825 65.8479 98.3653C66.3444 98.2481 66.842 98.5556 66.9592 99.0522C67.0764 99.5488 66.7688 100.046 66.2723 100.163C65.7757 100.281 65.2782 99.9732 65.161 99.4766Z" fill="white"/>
<defs>
<linearGradient id="paint0_linear_202_180" x1="67.1191" y1="138.855" x2="68.9205" y2="103.19" gradientUnits="userSpaceOnUse">
<stop stop-color="#09005D"/>
<stop offset="1" stop-color="#1A0F91"/>
</linearGradient>
<linearGradient id="paint1_linear_202_180" x1="65.6492" y1="-18.7078" x2="76.5328" y2="121.753" gradientUnits="userSpaceOnUse">
<stop stop-color="#53D8FF"/>
<stop offset="1" stop-color="#3840F7"/>
</linearGradient>
<linearGradient id="paint2_linear_202_180" x1="67.0073" y1="125.397" x2="83.5788" y2="161.783" gradientUnits="userSpaceOnUse">
<stop stop-color="#09005D"/>
<stop offset="1" stop-color="#1A0F91"/>
</linearGradient>
</defs>
</svg>
