<svg width="63" height="72" viewBox="0 0 63 72" fill="none" xmlns="http://www.w3.org/2000/svg">
<g clip-path="url(#clip0_201_1341)">
<path d="M12.08 39.44C12.08 39.74 11.88 39.96 11.66 39.95L9.65998 39.85C9.54063 39.8213 9.43638 39.7489 9.36786 39.6471C9.29935 39.5452 9.27155 39.4214 9.28998 39.3L9.37998 37.65C9.37998 37.36 9.57998 37.13 9.79998 37.15L11.8 37.25C12.01 37.25 12.17 37.5 12.16 37.8L12.08 39.44Z" fill="#AEBFCE"/>
<path d="M11.26 55.51C11.26 55.22 11.11 54.98 10.9 54.97L8.90003 54.87C8.69003 54.87 8.50003 55.08 8.49003 55.37L8.41003 57.02C8.41003 57.31 8.55003 57.55 8.77003 57.56L10.77 57.66C10.99 57.66 11.17 57.45 11.19 57.16L11.26 55.51Z" fill="#AEBFCE"/>
<path d="M7.84999 39.6C7.97999 39.86 7.93999 40.15 7.74999 40.24L5.91999 41.1801C5.80461 41.2181 5.67886 41.209 5.5702 41.1546C5.46153 41.1003 5.37878 41.0052 5.33999 40.89L4.57999 39.42C4.51186 39.3181 4.4853 39.194 4.50575 39.0732C4.52621 38.9523 4.59212 38.8439 4.68999 38.77L6.50999 37.8401C6.62672 37.8017 6.75385 37.8105 6.86413 37.8647C6.97441 37.9189 7.05908 38.0142 7.09999 38.13L7.84999 39.6Z" fill="#AEBFCE"/>
<path d="M15.18 53.93C15.1411 53.8145 15.0589 53.7187 14.9507 53.6628C14.8425 53.6068 14.7168 53.595 14.6001 53.6299L12.77 54.5699C12.6729 54.642 12.6072 54.7487 12.5867 54.8679C12.5663 54.9871 12.5925 55.1096 12.6601 55.21L13.4101 56.68C13.5501 56.94 13.8101 57.0699 14.0001 56.9699L15.8301 56.0399C15.9263 55.9647 15.9903 55.8555 16.0089 55.7348C16.0274 55.614 15.9993 55.4907 15.93 55.3899L15.18 53.93Z" fill="#AEBFCE"/>
<path d="M4.25995 41.8499C4.50995 42.0099 4.60995 42.28 4.48995 42.46L3.37995 44.18C3.29247 44.2637 3.17605 44.3104 3.05495 44.3104C2.93385 44.3104 2.81743 44.2637 2.72995 44.18L1.33995 43.2799C1.23017 43.2277 1.14489 43.135 1.102 43.0213C1.05911 42.9076 1.06196 42.7816 1.10995 42.67L2.25995 40.99C2.3491 40.9056 2.46719 40.8585 2.58995 40.8585C2.71271 40.8585 2.83081 40.9056 2.91995 40.99L4.25995 41.8499Z" fill="#AEBFCE"/>
<path d="M17.78 50.59C17.6926 50.5062 17.5761 50.4595 17.455 50.4595C17.3339 50.4595 17.2175 50.5062 17.13 50.59L16.01 52.31C15.9645 52.4219 15.963 52.5469 16.0056 52.66C16.0482 52.7731 16.132 52.8659 16.24 52.92L17.63 53.8199C17.7175 53.9037 17.8339 53.9504 17.955 53.9504C18.0761 53.9504 18.1926 53.9037 18.28 53.8199L19.39 52.0999C19.4387 51.9895 19.443 51.8645 19.4021 51.7509C19.3611 51.6374 19.278 51.5439 19.17 51.49L17.78 50.59Z" fill="#AEBFCE"/>
<path d="M2.26004 45.59C2.55004 45.59 2.77004 45.79 2.76004 46L2.66005 48.05C2.66005 48.26 2.40004 48.42 2.11004 48.41L0.460045 48.33C0.170045 48.33 -0.0499555 48.12 -0.0399555 47.91L0.060043 45.91C0.060043 45.69 0.320042 45.53 0.610042 45.54L2.26004 45.59Z" fill="#AEBFCE"/>
<path d="M18.36 46.4C18.07 46.4 17.83 46.55 17.82 46.76L17.72 48.81C17.72 49.03 17.93 49.21 18.22 49.22L19.87 49.31C19.989 49.331 20.1115 49.3052 20.2121 49.2382C20.3126 49.1711 20.3835 49.0679 20.41 48.95L20.52 46.95C20.52 46.74 20.3 46.55 20.01 46.54L18.36 46.4Z" fill="#AEBFCE"/>
<path d="M2.45001 49.81C2.55192 49.7419 2.67602 49.7153 2.79688 49.7357C2.91774 49.7562 3.0262 49.8221 3.10001 49.92L4.03001 51.74C4.0684 51.8567 4.05954 51.9838 4.00533 52.0941C3.95113 52.2044 3.85589 52.2891 3.74001 52.33L2.27001 53.08C2.16811 53.1481 2.044 53.1746 1.92314 53.1542C1.80228 53.1337 1.69383 53.0678 1.62001 52.97L0.690014 51.15C0.651963 51.0346 0.661102 50.9089 0.715435 50.8002C0.769768 50.6915 0.864881 50.6087 0.980015 50.57L2.45001 49.81Z" fill="#AEBFCE"/>
<path d="M16.7799 42.49C16.6648 42.5288 16.5697 42.6115 16.5154 42.7202C16.461 42.8289 16.4519 42.9546 16.4899 43.07L17.4199 44.89C17.4904 44.9893 17.5973 45.0566 17.7172 45.0772C17.8372 45.0978 17.9604 45.0701 18.0599 45L19.5299 44.25C19.6458 44.2091 19.7411 44.1244 19.7953 44.0141C19.8495 43.9039 19.8583 43.7767 19.8199 43.66L18.8899 41.84C18.8179 41.7429 18.7112 41.6772 18.592 41.6567C18.4728 41.6362 18.3503 41.6625 18.2499 41.73L16.7799 42.49Z" fill="#AEBFCE"/>
<path d="M4.69999 53.3899C4.75404 53.2819 4.84687 53.1981 4.95995 53.1555C5.07303 53.1129 5.19803 53.1144 5.30999 53.1599L7.02999 54.2699C7.11439 54.3591 7.16142 54.4772 7.16142 54.5999C7.16142 54.7227 7.11439 54.8408 7.02999 54.93L6.13999 56.3199C6.0841 56.4287 5.98882 56.512 5.8736 56.5529C5.75839 56.5938 5.63191 56.5891 5.51999 56.5399L3.80999 55.43C3.71921 55.3491 3.6633 55.2362 3.65397 55.115C3.64465 54.9938 3.68265 54.8737 3.75999 54.7799L4.69999 53.3899Z" fill="#AEBFCE"/>
<path d="M13.44 39.89C13.3563 39.9774 13.3096 40.0939 13.3096 40.215C13.3096 40.3361 13.3563 40.4525 13.44 40.5399L15.26 41.6699C15.3145 41.6948 15.3733 41.7086 15.4331 41.7105C15.4929 41.7124 15.5525 41.7024 15.6083 41.6809C15.6642 41.6595 15.7152 41.6272 15.7585 41.5858C15.8017 41.5444 15.8362 41.4948 15.86 41.4399L16.76 40.05C16.8438 39.9625 16.8905 39.846 16.8905 39.7249C16.8905 39.6038 16.8438 39.4874 16.76 39.4L15.04 38.2899C14.86 38.1699 14.59 38.29 14.43 38.52L13.44 39.89Z" fill="#AEBFCE"/>
<path d="M10.7 38.78C8.993 38.6931 7.29862 39.1144 5.83116 39.9907C4.3637 40.867 3.1891 42.1588 2.45596 43.7027C1.72282 45.2467 1.46407 46.9734 1.71246 48.6644C1.96084 50.3554 2.70519 51.9348 3.85135 53.2027C4.99751 54.4706 6.49397 55.3701 8.15143 55.7874C9.80889 56.2047 11.5529 56.121 13.1627 55.5469C14.7726 54.9728 16.1761 53.9341 17.1955 52.5623C18.215 51.1904 18.8047 49.547 18.89 47.84C19.0043 45.5528 18.2058 43.3137 16.6701 41.6149C15.1344 39.9161 12.9871 38.8964 10.7 38.78ZM9.96997 53.09C8.84746 53.0273 7.7687 52.6334 6.86983 51.9582C5.97096 51.2829 5.29227 50.3565 4.91943 49.2958C4.54659 48.2352 4.4963 47.0879 4.77492 45.9987C5.05353 44.9095 5.64856 43.9273 6.48491 43.176C7.32125 42.4247 8.36142 41.938 9.47413 41.7773C10.5868 41.6166 11.7222 41.7891 12.737 42.2731C13.7517 42.7571 14.6003 43.5309 15.1757 44.4967C15.7511 45.4626 16.0275 46.5772 15.97 47.7C15.9329 48.4489 15.748 49.1831 15.4258 49.8601C15.1036 50.5372 14.6505 51.1437 14.0927 51.6448C13.5349 52.1459 12.8834 52.5316 12.1758 52.7796C11.4682 53.0277 10.7185 53.1332 9.96997 53.09V53.09Z" fill="#768296"/>
<path d="M16.7801 36.3701C16.7837 36.4577 16.7552 36.5436 16.7 36.6118C16.6448 36.6799 16.5666 36.7255 16.4801 36.7401L14.9701 36.67C14.8823 36.6508 14.8054 36.5985 14.7551 36.524C14.7048 36.4496 14.6851 36.3586 14.7001 36.2701L14.7701 35.0601C14.7701 34.8401 14.9101 34.6801 15.0701 34.6801L16.5801 34.76C16.7301 34.76 16.8501 34.95 16.8401 35.16L16.7801 36.3701Z" fill="#1C4670"/>
<path d="M16.18 48.1899C16.18 47.9699 16.07 47.7899 15.91 47.7799L14.41 47.71C14.25 47.71 14.11 47.87 14.1 48.08L14.04 49.2899C14.0251 49.3785 14.0448 49.4695 14.0951 49.5439C14.1453 49.6184 14.2223 49.6707 14.31 49.6899L15.81 49.77C15.97 49.77 16.11 49.61 16.12 49.4L16.18 48.1899Z" fill="#1C4670"/>
<path d="M13.67 36.48C13.7215 36.5548 13.742 36.6467 13.7271 36.7362C13.7121 36.8258 13.663 36.906 13.59 36.96L12.26 37.67C12.175 37.6962 12.0833 37.689 12.0035 37.65C11.9236 37.611 11.8616 37.5431 11.83 37.46L11.26 36.35C11.2097 36.2757 11.1891 36.1853 11.202 36.0965C11.215 36.0077 11.2606 35.9269 11.33 35.8701L12.68 35.19C12.82 35.11 13.01 35.1901 13.11 35.4001L13.67 36.48Z" fill="#1C4670"/>
<path d="M19.0601 47.02C18.9601 46.83 18.7701 46.73 18.6301 46.8L17.2901 47.49C17.2177 47.5422 17.1688 47.6207 17.1539 47.7086C17.1389 47.7965 17.1591 47.8868 17.2101 47.96L17.7601 49.05C17.7917 49.1353 17.8553 49.205 17.9375 49.2442C18.0196 49.2834 18.1138 49.289 18.2001 49.26L19.5401 48.5699C19.6103 48.5162 19.6576 48.4379 19.6725 48.3507C19.6873 48.2635 19.6686 48.1739 19.6201 48.0999L19.0601 47.02Z" fill="#1C4670"/>
<path d="M11.04 38.14C11.1198 38.1771 11.182 38.2436 11.2137 38.3257C11.2454 38.4077 11.2441 38.4989 11.21 38.58L10.39 39.8499C10.3251 39.9111 10.2392 39.9452 10.15 39.9452C10.0608 39.9452 9.97497 39.9111 9.91004 39.8499L8.91004 39.1899C8.73004 39.0699 8.65003 38.87 8.74003 38.74L9.56003 37.4699C9.64003 37.3399 9.86003 37.3299 10.04 37.4699L11.04 38.14Z" fill="#1C4670"/>
<path d="M20.97 44.5601C20.904 44.501 20.8186 44.4684 20.73 44.4684C20.6415 44.4684 20.556 44.501 20.49 44.5601L19.68 45.83C19.59 45.96 19.68 46.16 19.85 46.28L20.85 46.94C20.9166 47.0019 21.0041 47.0363 21.095 47.0363C21.1859 47.0363 21.2734 47.0019 21.34 46.94L22.16 45.67C22.25 45.55 22.16 45.34 21.99 45.22L20.97 44.5601Z" fill="#1C4670"/>
<path d="M9.58001 40.88C9.80001 40.88 9.97001 41.03 9.96001 41.19L9.88001 42.69C9.86073 42.7778 9.80845 42.8548 9.73399 42.905C9.65953 42.9553 9.5686 42.975 9.48001 42.9601L8.26001 42.9001C8.1709 42.9034 8.08372 42.8735 8.01536 42.8163C7.94701 42.759 7.90234 42.6784 7.89001 42.5901L7.97001 41.0901C7.9893 41.0023 8.04158 40.9254 8.11604 40.8751C8.1905 40.8248 8.28143 40.8051 8.37001 40.8201L9.58001 40.88Z" fill="#1C4670"/>
<path d="M21.4101 41.49C21.1901 41.49 21.0101 41.59 21.0001 41.75L20.9301 43.25C20.9301 43.41 21.0901 43.55 21.3001 43.56L22.5101 43.62C22.7301 43.62 22.9101 43.52 22.9101 43.36L22.9901 41.85C22.9901 41.69 22.8301 41.56 22.6201 41.55L21.4101 41.49Z" fill="#1C4670"/>
<path d="M9.7 43.99C9.77395 43.9415 9.86353 43.9227 9.95073 43.9376C10.0379 43.9524 10.1163 43.9997 10.17 44.07L10.86 45.41C10.8887 45.4948 10.8828 45.5876 10.8435 45.6682C10.8041 45.7487 10.7346 45.8105 10.65 45.84L9.56 46.4C9.48605 46.4485 9.39647 46.4672 9.30927 46.4524C9.22208 46.4375 9.14374 46.3902 9.09 46.32L8.41 44.97C8.33 44.84 8.41 44.64 8.62 44.54L9.7 43.99Z" fill="#1C4670"/>
<path d="M20.26 38.6C20.07 38.7 19.97 38.89 20.04 39.03L20.73 40.38C20.7836 40.4507 20.8629 40.4977 20.9507 40.5107C21.0385 40.5238 21.128 40.502 21.1999 40.45L22.29 39.9C22.47 39.8 22.57 39.61 22.5 39.47L21.81 38.13C21.7578 38.0577 21.6792 38.0088 21.5913 37.9938C21.5034 37.9789 21.4131 37.999 21.34 38.05L20.26 38.6Z" fill="#1C4670"/>
<path d="M11.3501 46.6701C11.4701 46.4901 11.6701 46.41 11.8001 46.5L13.0701 47.3101C13.1312 47.375 13.1653 47.4608 13.1653 47.5501C13.1653 47.6393 13.1312 47.7251 13.0701 47.79L12.4101 48.79C12.2901 48.96 12.0901 49.0401 11.9601 48.9501L10.6901 48.1401C10.631 48.0741 10.5984 47.9886 10.5984 47.9001C10.5984 47.8115 10.631 47.726 10.6901 47.66L11.3501 46.6701Z" fill="#1C4670"/>
<path d="M17.78 36.67C17.721 36.736 17.6884 36.8215 17.6884 36.91C17.6884 36.9986 17.721 37.084 17.78 37.15L19.05 37.97C19.1328 38.0022 19.2245 38.0026 19.3076 37.9712C19.3906 37.9398 19.4592 37.8789 19.5 37.8L20.16 36.8C20.2212 36.7351 20.2553 36.6493 20.2553 36.56C20.2553 36.4708 20.2212 36.385 20.16 36.32L18.89 35.5C18.8073 35.4679 18.7155 35.4674 18.6325 35.4988C18.5494 35.5302 18.4809 35.5912 18.44 35.67L17.78 36.67Z" fill="#1C4670"/>
<path d="M15.7601 35.87C14.5027 35.8003 13.253 36.1054 12.1693 36.7467C11.0855 37.388 10.2165 38.3365 9.67243 39.4722C9.12833 40.6078 8.9336 41.8794 9.11291 43.1259C9.29223 44.3723 9.83752 45.5374 10.6797 46.4736C11.5219 47.4099 12.623 48.075 13.8436 48.3848C15.0641 48.6946 16.3492 48.635 17.5359 48.2137C18.7226 47.7924 19.7575 47.0283 20.5095 46.0183C21.2615 45.0082 21.6967 43.7976 21.7601 42.54C21.8419 40.8616 21.2573 39.2188 20.1335 37.9695C19.0097 36.7202 17.4377 35.9656 15.7601 35.87V35.87ZM15.2601 46.4C14.4331 46.3597 13.6367 46.0752 12.9713 45.5827C12.3059 45.0901 11.8013 44.4115 11.5212 43.6324C11.2411 42.8534 11.1981 42.0087 11.3976 41.2052C11.5971 40.4017 12.0302 39.6754 12.6421 39.1178C13.2541 38.5602 14.0175 38.1964 14.8361 38.0723C15.6546 37.9482 16.4916 38.0693 17.2413 38.4205C17.991 38.7716 18.6199 39.337 19.0486 40.0452C19.4773 40.7535 19.6866 41.5729 19.6501 42.4C19.627 42.9517 19.4948 43.4934 19.2612 43.9938C19.0276 44.4942 18.6972 44.9433 18.289 45.3152C17.8808 45.6871 17.403 45.9745 16.8831 46.1607C16.3632 46.3468 15.8116 46.4282 15.2601 46.4Z" fill="#1C4670"/>
<path d="M31.45 53.74C31.21 52.99 31.73 53.2099 32.06 53.6699C32.39 54.1299 34.8799 57.0599 36.2599 53.2799C37.6399 49.4999 33.9099 50.1099 33.3499 50.2799C32.7899 50.4499 32.2599 50.2299 32.9299 49.8199C33.6224 49.3314 34.4303 49.032 35.2739 48.9513C36.1174 48.8706 36.9675 49.0115 37.74 49.3599C40.08 50.4299 39.5299 53.1799 39.0799 54.3599C38.6299 55.5399 37.2399 57.99 34.7799 57.27C33.9647 57.024 33.2282 56.5687 32.6439 55.9493C32.0596 55.3299 31.648 54.5681 31.45 53.74V53.74Z" fill="#1C4670"/>
<path d="M59.43 64.21C60.1 63.8 59.57 63.62 59.01 63.75C58.45 63.88 54.66 64.46 56.11 60.7C57.56 56.94 59.96 59.85 60.3 60.31C60.64 60.77 61.15 60.99 60.91 60.24C60.7092 59.4181 60.2972 58.6629 59.7149 58.049C59.1327 57.4352 58.4002 56.984 57.59 56.74C55.11 56.01 53.73 58.44 53.28 59.65C52.83 60.86 52.28 63.59 54.62 64.65C55.3915 64.9984 56.24 65.141 57.083 65.0639C57.926 64.9867 58.7346 64.6926 59.43 64.21V64.21Z" fill="#1C4670"/>
<path d="M39.2364 52.6529L38.6564 54.2083L53.6855 59.8125L54.2655 58.2571L39.2364 52.6529Z" fill="#1C4670"/>
<path d="M38.6639 54.2102L38.0834 55.7654L53.1105 61.3748L53.6911 59.8197L38.6639 54.2102Z" fill="#1C4670"/>
<path d="M59.01 63.75C59.57 63.62 60.1 63.8001 59.43 64.2101C58.7364 64.6958 57.9287 64.9935 57.0857 65.0742C56.2427 65.1548 55.3932 65.0155 54.62 64.67C52.28 63.59 52.83 60.84 53.28 59.67L56.11 60.67C54.66 64.46 58.46 63.88 59.01 63.75Z" fill="#1C4670"/>
<path d="M34.7799 57.25C33.9672 57.0058 33.2323 56.5534 32.6482 55.9378C32.0641 55.3221 31.6511 54.5645 31.45 53.74C31.21 52.99 31.73 53.21 32.06 53.67C32.39 54.13 34.8799 57.06 36.2599 53.28L39.0799 54.34C38.6299 55.54 37.2599 57.97 34.7799 57.25Z" fill="#1C4670"/>
<path d="M49.7841 43.6613L44.6365 57.4733L45.8359 57.9203L50.9835 44.1083L49.7841 43.6613Z" fill="#FCD751"/>
<path d="M50.9904 44.135L45.8259 57.9407L47.0248 58.3891L52.1893 44.5835L50.9904 44.135Z" fill="#FFA229"/>
<path d="M50.41 45.67C50.41 45.67 48.28 44.4901 48.62 43.5201C48.96 42.5501 51.32 39.7501 52.46 40.1801L50.41 45.67Z" fill="#FCD751"/>
<path d="M50.41 45.67C50.41 45.67 52.79 46.18 53.17 45.22C53.55 44.26 53.61 40.61 52.46 40.22L50.41 45.67Z" fill="#FFA229"/>
<path d="M44.0299 69.4999C43.8117 70.0784 43.3751 70.5482 42.814 70.8081C42.253 71.068 41.6124 71.0974 41.0299 70.89V70.89C40.4428 70.6677 39.9673 70.2224 39.707 69.6512C39.4466 69.0799 39.4225 68.4289 39.6399 67.84L43.7599 56.84C43.9782 56.2615 44.4148 55.7917 44.9758 55.5318C45.5369 55.2719 46.1775 55.2425 46.7599 55.45V55.45C47.0523 55.5578 47.3204 55.7225 47.5487 55.9346C47.7771 56.1466 47.9612 56.4018 48.0904 56.6853C48.2197 56.9689 48.2915 57.2752 48.3017 57.5867C48.3119 57.8982 48.2603 58.2085 48.1499 58.4999L44.0299 69.4999Z" fill="#AEBFCE"/>
<path d="M41.77 70.07C41.7528 70.1314 41.7235 70.1887 41.6839 70.2387C41.6443 70.2886 41.5951 70.3302 41.5392 70.3609C41.4834 70.3916 41.422 70.4109 41.3586 70.4176C41.2952 70.4243 41.2311 70.4184 41.17 70.4001C41.112 70.3741 41.0596 70.3369 41.016 70.2906C40.9725 70.2443 40.9385 70.1898 40.9162 70.1302C40.8939 70.0707 40.8836 70.0073 40.886 69.9438C40.8883 69.8802 40.9033 69.8178 40.93 69.76L45.5 57.5201C45.5414 57.3983 45.6272 57.2966 45.7403 57.2354C45.8534 57.1742 45.9855 57.158 46.11 57.19V57.19C46.222 57.248 46.3079 57.3462 46.3506 57.4649C46.3933 57.5836 46.3895 57.714 46.34 57.83L41.77 70.07Z" fill="#768296"/>
<path d="M43.2599 69.93C43.2427 69.9914 43.2134 70.0487 43.1738 70.0986C43.1342 70.1486 43.085 70.1901 43.0291 70.2208C42.9733 70.2515 42.9119 70.2708 42.8485 70.2776C42.7851 70.2843 42.721 70.2783 42.66 70.26V70.26C42.5455 70.2019 42.4578 70.102 42.415 69.981C42.3722 69.86 42.3775 69.7272 42.4299 69.61L46.9999 57.38C47.0172 57.3186 47.0465 57.2613 47.0861 57.2114C47.1257 57.1615 47.1749 57.1199 47.2308 57.0892C47.2866 57.0585 47.348 57.0392 47.4114 57.0325C47.4748 57.0257 47.5389 57.0317 47.5999 57.05V57.05C47.658 57.0759 47.7104 57.1131 47.754 57.1595C47.7975 57.2058 47.8315 57.2603 47.8538 57.3198C47.8761 57.3794 47.8864 57.4428 47.884 57.5063C47.8816 57.5699 47.8667 57.6323 47.84 57.69L43.2599 69.93Z" fill="#768296"/>
<path d="M39.87 68.67C39.815 68.7868 39.8082 68.9206 39.8513 69.0423C39.8944 69.164 39.9837 69.2638 40.1 69.32C40.2233 69.3543 40.3551 69.3389 40.4672 69.2772C40.5793 69.2156 40.6629 69.1125 40.7 68.99L45.26 56.72C45.3112 56.6031 45.3148 56.4708 45.27 56.3513C45.2252 56.2318 45.1355 56.1344 45.02 56.08C44.9589 56.0617 44.8948 56.0558 44.8314 56.0625C44.768 56.0692 44.7066 56.0885 44.6508 56.1192C44.5949 56.1499 44.5458 56.1915 44.5061 56.2414C44.4665 56.2914 44.4372 56.3487 44.42 56.41L39.87 68.67Z" fill="#768296"/>
<path d="M49.26 57.67C49.2055 57.8151 49.123 57.9481 49.0171 58.0613C48.9113 58.1745 48.7841 58.2658 48.643 58.3299C48.5018 58.394 48.3494 58.4296 48.1945 58.4348C48.0395 58.4399 47.8851 58.4145 47.74 58.36L44.05 56.9799C43.9049 56.9255 43.7719 56.843 43.6586 56.7371C43.5454 56.6312 43.4541 56.5041 43.3901 56.3629C43.326 56.2218 43.2904 56.0694 43.2852 55.9144C43.28 55.7595 43.3055 55.6051 43.36 55.46V55.46C43.4701 55.1692 43.6904 54.9337 43.9731 54.8045C44.2559 54.6753 44.5782 54.6629 44.87 54.77L48.57 56.1599C48.7148 56.2133 48.8476 56.2949 48.9607 56.3998C49.0738 56.5047 49.1651 56.631 49.2292 56.7714C49.2934 56.9117 49.3291 57.0634 49.3344 57.2176C49.3397 57.3718 49.3144 57.5255 49.26 57.67V57.67Z" fill="#768296"/>
<path d="M48.97 57.23C48.861 57.4587 48.6693 57.6376 48.4336 57.7304C48.1978 57.8232 47.9357 57.8231 47.7 57.73L44.55 56.55C44.3135 56.4656 44.1174 56.2954 44.0007 56.073C43.884 55.8507 43.8552 55.5926 43.92 55.35V55.35C44.0289 55.1237 44.2189 54.9466 44.4524 54.854C44.6858 54.7613 44.9456 54.7599 45.18 54.85L48.34 56.03C48.5765 56.1144 48.7726 56.2847 48.8893 56.507C49.006 56.7294 49.0348 56.9874 48.97 57.23V57.23Z" fill="#768296"/>
<path d="M38.2601 30.13L33.5501 21.98C33.4307 21.8566 33.2877 21.7585 33.1297 21.6915C32.9716 21.6245 32.8017 21.59 32.6301 21.59C32.4584 21.59 32.2885 21.6245 32.1304 21.6915C31.9724 21.7585 31.8294 21.8566 31.7101 21.98L27.0001 30.13C26.9123 30.3179 26.8981 30.5318 26.9602 30.7296C27.0223 30.9275 27.1561 31.0949 27.3355 31.199C27.5148 31.3031 27.7266 31.3363 27.9292 31.2921C28.1317 31.2478 28.3104 31.1294 28.4301 30.96L32.6301 23.69L36.8301 30.96C36.9388 31.1483 37.1179 31.2857 37.3279 31.3419C37.538 31.3982 37.7618 31.3687 37.9501 31.26C38.1407 31.151 38.2804 30.9709 38.3385 30.7591C38.3966 30.5473 38.3684 30.321 38.2601 30.13V30.13Z" fill="#1C4670"/>
<path d="M33.59 31.05C33.59 31.3153 33.4846 31.5696 33.2971 31.7571C33.1095 31.9447 32.8552 32.05 32.59 32.05C32.3247 32.05 32.0704 31.9447 31.8829 31.7571C31.6953 31.5696 31.59 31.3153 31.59 31.05V19.67C31.59 19.4048 31.6953 19.1505 31.8829 18.963C32.0704 18.7754 32.3247 18.67 32.59 18.67C32.8552 18.67 33.1095 18.7754 33.2971 18.963C33.4846 19.1505 33.59 19.4048 33.59 19.67V31.05Z" fill="#1C4670"/>
<path d="M20.55 1.20995H44.64C45.014 1.20995 45.3726 1.3585 45.637 1.62293C45.9015 1.88736 46.05 2.246 46.05 2.61995V18.62C46.05 18.9939 45.9015 19.3525 45.637 19.617C45.3726 19.8814 45.014 20.03 44.64 20.03H20.56C20.3735 20.03 20.1889 19.9932 20.0166 19.9219C19.8443 19.8505 19.6878 19.7459 19.5559 19.614C19.4241 19.4822 19.3195 19.3256 19.2481 19.1534C19.1767 18.9811 19.14 18.7964 19.14 18.61V2.60995C19.14 2.236 19.2886 1.87736 19.553 1.61293C19.8174 1.3485 20.1761 1.19995 20.55 1.19995V1.20995Z" fill="#AEBFCE"/>
<path d="M29.2 10.53H27.4V16.91H29.2V10.53Z" fill="#FCD751"/>
<path d="M32.31 7.62H30.51V16.91H32.31V7.62Z" fill="#FCD751"/>
<path d="M36.2301 12.37H34.4301V16.91H36.2301V12.37Z" fill="#FCD751"/>
<path d="M39.75 10.53H37.95V16.91H39.75V10.53Z" fill="#FCD751"/>
<path d="M38.8499 6.66L37.3199 7.56L37.8999 7.88L35.2799 11.1L31.5299 4.62L27.5699 9.85L27.9599 10.05L31.4799 5.42L35.2099 11.87L38.2899 8.1L38.8599 8.41L38.8499 6.66Z" fill="white"/>
<path d="M25.71 4.62H25.17V18.38H25.71V4.62Z" fill="white"/>
<path d="M41.36 16.91H23.83V17.4H41.36V16.91Z" fill="white"/>
<path d="M46.9801 1.41C46.9801 1.59648 46.9433 1.78115 46.872 1.95343C46.8006 2.12571 46.696 2.28223 46.5641 2.41409C46.4323 2.54595 46.2757 2.65056 46.1035 2.72192C45.9312 2.79329 45.7465 2.83002 45.5601 2.83002H19.63C19.2613 2.81956 18.9114 2.66502 18.6553 2.39957C18.3992 2.13411 18.2573 1.77886 18.26 1.41V1.41C18.26 1.03605 18.4086 0.677421 18.673 0.412994C18.9375 0.148568 19.2961 4.37069e-10 19.67 4.37126e-10H45.5601C45.9349 -9.29548e-06 46.2946 0.148241 46.5606 0.412384C46.8266 0.676527 46.9774 1.03513 46.9801 1.41V1.41Z" fill="#1C4670"/>
<path d="M52.68 53.67L52.1 53.1201C56.5666 48.3201 59.1156 42.0473 59.263 35.4922C59.4105 28.9371 57.1462 22.5561 52.9 17.5601L53.51 17.04C57.8781 22.1894 60.2062 28.7619 60.0532 35.5127C59.9002 42.2635 57.2769 48.7238 52.68 53.67V53.67Z" fill="#768296"/>
<path d="M5.71003 34.91H4.91003C4.91672 30.5095 5.97364 26.1741 7.99295 22.2642C10.0122 18.3543 12.9356 14.9828 16.52 12.4301L16.98 13.08C13.4988 15.5583 10.6599 18.8322 8.69962 22.6293C6.73933 26.4264 5.71436 30.6368 5.71003 34.91V34.91Z" fill="#768296"/>
<path d="M32.49 62.49C27.3844 62.4914 22.3785 61.0755 18.03 58.4L18.45 57.72C24.4952 61.4342 31.7654 62.6028 38.67 60.97L38.85 61.75C36.7658 62.2421 34.6315 62.4904 32.49 62.49Z" fill="#768296"/>
<path d="M43.01 24.86C41.1217 24.8624 39.291 24.2097 37.8301 23.0134C36.3691 21.817 35.3683 20.151 34.9982 18.2993C34.6281 16.4477 34.9117 14.5249 35.8006 12.8589C36.6894 11.1929 38.1286 9.88679 39.8727 9.16311C41.6168 8.43943 43.5579 8.343 45.3651 8.89031C47.1723 9.43763 48.7338 10.5948 49.7834 12.1645C50.8329 13.7342 51.3056 15.6194 51.1208 17.4986C50.936 19.3778 50.1052 21.1348 48.77 22.47C48.0151 23.2288 47.1175 23.8306 46.1289 24.2408C45.1403 24.651 44.0803 24.8615 43.01 24.86V24.86ZM43.01 10.94C42.0611 10.94 41.1268 11.1741 40.29 11.6214C39.4532 12.0687 38.7396 12.7154 38.2124 13.5044C37.6852 14.2934 37.3608 15.2001 37.2677 16.1445C37.1747 17.0888 37.3161 18.0415 37.6792 18.9181C38.0423 19.7948 38.616 20.5683 39.3495 21.1703C40.083 21.7723 40.9536 22.184 41.8843 22.3692C42.8149 22.5543 43.7769 22.507 44.6849 22.2316C45.5929 21.9561 46.419 21.461 47.09 20.79C48.1672 19.7054 48.7717 18.2387 48.7717 16.71C48.7717 15.1814 48.1672 13.7147 47.09 12.63C46.5555 12.0925 45.9197 11.6663 45.2193 11.3762C44.519 11.0861 43.768 10.9378 43.01 10.94V10.94Z" fill="#1C4670"/>
<path d="M48.6698 20.7066L46.9795 22.3962L50.7265 26.1446L52.4168 24.4549L48.6698 20.7066Z" fill="#1C4670"/>
<path d="M62.4 33.52C62.6009 33.7239 62.7135 33.9987 62.7135 34.2849C62.7135 34.5712 62.6009 34.846 62.4 35.05L61.34 36.0999C61.2405 36.2003 61.1221 36.28 60.9917 36.3344C60.8612 36.3888 60.7213 36.4167 60.58 36.4167C60.4387 36.4167 60.2987 36.3888 60.1683 36.3344C60.0379 36.28 59.9195 36.2003 59.82 36.0999L49.88 26.1599C49.7781 26.0603 49.6971 25.9413 49.6419 25.8099C49.5866 25.6786 49.5581 25.5375 49.5581 25.395C49.5581 25.2524 49.5866 25.1113 49.6419 24.98C49.6971 24.8486 49.7781 24.7296 49.88 24.6299L50.88 23.6299C51.0839 23.429 51.3587 23.3164 51.645 23.3164C51.9313 23.3164 52.2061 23.429 52.41 23.6299L62.4 33.52Z" fill="#FFA229"/>
<path d="M53.1786 24.2751L50.5923 26.8506L51.1568 27.4174L53.7431 24.8419L53.1786 24.2751Z" fill="#1C4670"/>
<path d="M54.0682 25.1461L51.4886 27.7284L52.0546 28.2938L54.6342 25.7115L54.0682 25.1461Z" fill="#1C4670"/>
<path d="M61.1291 32.2492L58.5459 34.8279L59.1111 35.3941L61.6943 32.8154L61.1291 32.2492Z" fill="#1C4670"/>
<path d="M60.2274 31.3648L57.6487 33.948L58.2149 34.5132L60.7936 31.93L60.2274 31.3648Z" fill="#1C4670"/>
</g>
<defs>
<clipPath id="clip0_201_1341">
<rect width="62.72" height="71.04" fill="white"/>
</clipPath>
</defs>
</svg>
